<svg xmlns="http://www.w3.org/2000/svg" xmlns:xlink="http://www.w3.org/1999/xlink" width="1080" zoomAndPan="magnify" viewBox="0 0 810 809.999993" height="1080" preserveAspectRatio="xMidYMid meet" version="1.0"><defs><filter x="0%" y="0%" width="100%" height="100%" id="d134c901ca"><feColorMatrix values="0 0 0 0 1 0 0 0 0 1 0 0 0 0 1 0 0 0 1 0" color-interpolation-filters="sRGB"/></filter><mask id="e99a95dd1a"><g filter="url(#d134c901ca)"><rect x="-81" width="972" fill="#000000" y="-80.999999" height="971.999992" fill-opacity="0.21"/></g></mask><clipPath id="56dc14237e"><path d="M 0 0 L 810 0 L 810 810 L 0 810 Z M 0 0 " clip-rule="nonzero"/></clipPath><clipPath id="2d485ad889"><rect x="0" width="810" y="0" height="810"/></clipPath></defs><g mask="url(#e99a95dd1a)"><g transform="matrix(1, 0, 0, 1, 0, 0.000000000000039746)"><g clip-path="url(#2d485ad889)"><g clip-path="url(#56dc14237e)"><path fill="#488cca" d="M 804.828125 -510.183594 C 805.0625 -510.25 805.300781 -510.285156 805.503906 -510.386719 C 805.707031 -510.453125 805.90625 -510.554688 806.109375 -510.65625 C 806.246094 -510.722656 806.414062 -510.789062 806.550781 -510.859375 C 806.785156 -510.992188 806.988281 -511.160156 807.222656 -511.296875 C 807.324219 -511.363281 807.394531 -511.433594 807.496094 -511.5 C 807.730469 -511.703125 807.96875 -511.90625 808.167969 -512.140625 C 808.203125 -512.207031 808.269531 -512.242188 808.339844 -512.308594 C 808.574219 -512.578125 808.777344 -512.851562 808.945312 -513.121094 C 808.980469 -513.152344 809.011719 -513.1875 809.046875 -513.253906 C 809.183594 -513.492188 809.316406 -513.761719 809.417969 -514.03125 C 809.453125 -514.132812 809.519531 -514.234375 809.554688 -514.335938 C 809.554688 -514.335938 809.554688 -514.367188 809.554688 -514.367188 C 809.6875 -514.773438 809.824219 -515.179688 809.890625 -515.582031 C 809.925781 -515.785156 809.925781 -515.988281 809.957031 -516.191406 C 809.957031 -516.394531 809.992188 -516.5625 809.992188 -516.765625 C 809.992188 -516.800781 809.992188 -516.832031 809.992188 -516.867188 C 809.992188 -517.171875 809.957031 -517.472656 809.890625 -517.742188 C 809.855469 -517.914062 809.855469 -518.046875 809.824219 -518.214844 C 809.757812 -518.453125 809.6875 -518.6875 809.621094 -518.925781 C 809.554688 -519.128906 809.519531 -519.332031 809.417969 -519.5 C 809.351562 -519.667969 809.25 -519.804688 809.183594 -519.9375 C 809.046875 -520.175781 808.945312 -520.410156 808.777344 -520.648438 C 808.710938 -520.746094 808.640625 -520.816406 808.574219 -520.882812 C 808.371094 -521.152344 808.167969 -521.421875 807.933594 -521.625 C 807.867188 -521.691406 807.796875 -521.726562 807.765625 -521.761719 C 807.496094 -521.996094 807.222656 -522.234375 806.921875 -522.4375 C 806.820312 -522.503906 806.71875 -522.535156 806.617188 -522.605469 C 806.347656 -522.773438 806.078125 -522.910156 805.773438 -523.042969 C 805.738281 -523.042969 805.707031 -523.078125 805.671875 -523.109375 C 805.503906 -523.179688 805.335938 -523.210938 805.132812 -523.246094 C 804.929688 -523.3125 804.691406 -523.378906 804.492188 -523.414062 C 804.21875 -523.480469 803.917969 -523.480469 803.648438 -523.515625 C 803.511719 -523.515625 803.375 -523.550781 803.242188 -523.550781 C 803.207031 -523.550781 803.175781 -523.550781 803.140625 -523.550781 C 802.835938 -523.550781 802.53125 -523.515625 802.230469 -523.449219 C 802.09375 -523.414062 801.925781 -523.414062 801.789062 -523.378906 C 801.554688 -523.3125 801.316406 -523.246094 801.082031 -523.144531 C 800.878906 -523.078125 800.710938 -523.042969 800.507812 -522.941406 C 800.339844 -522.875 800.203125 -522.773438 800.035156 -522.671875 C 799.796875 -522.535156 799.5625 -522.4375 799.359375 -522.265625 C 799.257812 -522.199219 799.191406 -522.097656 799.089844 -522.03125 C 798.851562 -521.828125 798.582031 -521.625 798.382812 -521.390625 C 798.3125 -521.320312 798.28125 -521.253906 798.210938 -521.1875 C 797.976562 -520.917969 797.738281 -520.648438 797.570312 -520.375 C 797.503906 -520.277344 797.46875 -520.175781 797.402344 -520.039062 C 797.234375 -519.769531 797.097656 -519.5 796.964844 -519.195312 C 796.964844 -519.160156 796.929688 -519.128906 796.894531 -519.09375 C 796.792969 -518.859375 796.761719 -518.585938 796.691406 -518.351562 C 796.660156 -518.25 796.625 -518.113281 796.59375 -518.015625 C 796.421875 -517.171875 796.421875 -516.328125 796.558594 -515.515625 C 796.59375 -515.382812 796.625 -515.246094 796.660156 -515.078125 C 796.726562 -514.839844 796.761719 -514.605469 796.863281 -514.402344 C 796.929688 -514.199219 797.03125 -513.964844 797.132812 -513.761719 C 797.199219 -513.625 797.234375 -513.492188 797.335938 -513.355469 C 797.46875 -513.121094 797.636719 -512.882812 797.808594 -512.648438 C 797.875 -512.578125 797.910156 -512.476562 797.976562 -512.410156 C 798.109375 -512.242188 798.28125 -512.074219 798.449219 -511.90625 L 456.621094 -14.605469 C 455.980469 -14.875 455.339844 -15.078125 454.628906 -15.179688 C 450.917969 -15.585938 447.542969 -12.851562 447.136719 -9.136719 C 446.730469 -5.425781 449.464844 -2.050781 453.179688 -1.644531 C 454.054688 -1.542969 454.898438 -1.644531 455.710938 -1.847656 L 652.359375 399.320312 C 652.328125 399.320312 652.328125 399.355469 652.328125 399.355469 C 652.292969 399.386719 652.226562 399.421875 652.191406 399.453125 C 652.125 399.488281 652.089844 399.523438 652.058594 399.589844 C 651.886719 399.726562 651.71875 399.894531 651.550781 400.0625 C 651.515625 400.097656 651.484375 400.128906 651.449219 400.164062 C 651.414062 400.199219 651.382812 400.265625 651.3125 400.332031 C 651.28125 400.367188 651.246094 400.433594 651.179688 400.46875 C 651.144531 400.535156 651.078125 400.570312 651.042969 400.636719 C 651.042969 400.636719 651.011719 400.671875 651.011719 400.671875 C 650.941406 400.738281 650.941406 400.804688 650.875 400.871094 C 650.875 400.90625 650.839844 400.90625 650.839844 400.941406 C 650.808594 401.007812 650.742188 401.074219 650.671875 401.140625 C 650.640625 401.175781 650.605469 401.242188 650.570312 401.277344 C 650.570312 401.3125 650.539062 401.3125 650.539062 401.34375 C 650.503906 401.414062 650.46875 401.445312 650.4375 401.515625 C 650.4375 401.515625 650.402344 401.546875 650.402344 401.546875 L 231.785156 273.855469 C 231.851562 273.382812 231.851562 272.910156 231.785156 272.40625 C 231.414062 269.128906 228.78125 266.597656 225.574219 266.328125 L 190.503906 -66.6875 C 193.574219 -67.632812 195.667969 -70.605469 195.296875 -73.910156 C 194.890625 -77.625 191.550781 -80.359375 187.804688 -79.953125 C 184.089844 -79.546875 181.355469 -76.207031 181.761719 -72.460938 C 182.132812 -69.1875 184.765625 -66.65625 187.972656 -66.382812 L 223.042969 266.632812 C 219.972656 267.578125 217.878906 270.546875 218.25 273.855469 C 218.25 273.890625 218.25 273.921875 218.25 273.921875 L -8.003906 344.875 C -9.183594 342.679688 -11.515625 341.230469 -14.179688 341.261719 C -17.925781 341.332031 -20.863281 344.535156 -20.796875 348.25 C -20.730469 351.558594 -18.230469 354.257812 -15.058594 354.765625 L -7.328125 629.050781 C -10.230469 629.691406 -12.390625 632.019531 -12.660156 635.191406 C -12.695312 635.867188 -12.59375 636.507812 -12.457031 637.117188 L -604.808594 893.074219 C -604.808594 893.074219 -604.808594 893.074219 -604.808594 893.039062 C -605.011719 892.703125 -605.28125 892.433594 -605.550781 892.128906 C -605.789062 891.890625 -606.023438 891.691406 -606.292969 891.488281 C -606.363281 891.453125 -606.394531 891.386719 -606.460938 891.351562 C -606.632812 891.21875 -606.832031 891.117188 -607.035156 891.015625 C -607.207031 890.914062 -607.375 890.8125 -607.542969 890.746094 C -607.644531 890.710938 -607.710938 890.675781 -607.8125 890.644531 C -608.117188 890.507812 -608.386719 890.40625 -608.691406 890.339844 C -608.691406 890.339844 -608.722656 890.339844 -608.722656 890.339844 C -609.09375 890.238281 -609.464844 890.171875 -609.871094 890.136719 C -609.90625 890.136719 -609.90625 890.136719 -609.9375 890.136719 C -610.277344 890.105469 -610.648438 890.105469 -610.984375 890.136719 C -611.019531 890.136719 -611.085938 890.136719 -611.121094 890.136719 C -611.222656 890.136719 -611.324219 890.171875 -611.390625 890.203125 C -611.660156 890.238281 -611.964844 890.304688 -612.234375 890.375 C -612.402344 890.40625 -612.570312 890.476562 -612.742188 890.542969 C -612.84375 890.574219 -612.976562 890.609375 -613.078125 890.644531 C -613.179688 890.675781 -613.246094 890.746094 -613.316406 890.777344 C -613.585938 890.914062 -613.855469 891.082031 -614.125 891.25 C -614.226562 891.320312 -614.292969 891.386719 -614.394531 891.417969 C -614.664062 891.621094 -614.933594 891.859375 -615.171875 892.09375 C -615.238281 892.164062 -615.339844 892.265625 -615.40625 892.332031 C -615.609375 892.535156 -615.777344 892.769531 -615.949219 893.007812 C -616.046875 893.140625 -616.148438 893.308594 -616.25 893.480469 C -616.351562 893.648438 -616.453125 893.816406 -616.519531 893.984375 C -616.65625 894.222656 -616.757812 894.492188 -616.824219 894.761719 C -616.859375 894.863281 -616.894531 894.964844 -616.925781 895.097656 C -617.027344 895.4375 -617.09375 895.773438 -617.128906 896.113281 C -617.128906 896.214844 -617.164062 896.3125 -617.164062 896.414062 C -617.195312 896.71875 -617.195312 897.058594 -617.164062 897.359375 C -617.164062 897.460938 -617.164062 897.53125 -617.164062 897.628906 C -617.164062 897.730469 -617.128906 897.832031 -617.09375 897.933594 C -617.0625 898.171875 -616.992188 898.40625 -616.925781 898.675781 C -616.859375 898.914062 -616.792969 899.117188 -616.722656 899.320312 C -616.691406 899.417969 -616.65625 899.519531 -616.621094 899.621094 C -616.589844 899.722656 -616.519531 899.789062 -616.488281 899.859375 C -616.351562 900.128906 -616.21875 900.398438 -616.046875 900.667969 C -615.980469 900.769531 -615.914062 900.835938 -615.878906 900.9375 C -615.675781 901.207031 -615.441406 901.480469 -615.203125 901.714844 C -615.136719 901.78125 -615.035156 901.882812 -614.96875 901.953125 C -614.765625 902.152344 -614.53125 902.324219 -614.292969 902.492188 C -614.160156 902.59375 -613.988281 902.695312 -613.820312 902.796875 C -613.652344 902.894531 -613.484375 902.996094 -613.28125 903.066406 C -613.042969 903.199219 -612.773438 903.300781 -612.503906 903.367188 C -612.402344 903.402344 -612.300781 903.4375 -612.167969 903.46875 C -611.828125 903.570312 -611.492188 903.640625 -611.15625 903.671875 C -611.054688 903.671875 -610.953125 903.707031 -610.851562 903.707031 C -610.546875 903.738281 -610.210938 903.738281 -609.90625 903.707031 C -609.804688 903.707031 -609.738281 903.707031 -609.636719 903.707031 C -609.535156 903.707031 -609.398438 903.671875 -609.296875 903.640625 C -609.09375 903.605469 -608.894531 903.570312 -608.722656 903.539062 C -608.453125 903.46875 -608.21875 903.402344 -607.980469 903.300781 C -607.878906 903.269531 -607.777344 903.234375 -607.679688 903.199219 C -607.644531 903.167969 -607.578125 903.132812 -607.542969 903.132812 C -607.238281 902.996094 -606.96875 902.828125 -606.699219 902.660156 C -606.664062 902.625 -606.632812 902.625 -606.5625 902.59375 C -606.261719 902.390625 -605.957031 902.152344 -605.6875 901.882812 C -605.6875 901.882812 -605.6875 901.882812 -605.652344 901.851562 C -605.417969 901.613281 -605.214844 901.378906 -605.011719 901.105469 C -604.976562 901.039062 -604.910156 900.972656 -604.875 900.9375 C -604.742188 900.769531 -604.640625 900.566406 -604.539062 900.363281 C -604.4375 900.195312 -604.335938 900.027344 -604.269531 899.859375 C -604.234375 899.757812 -604.199219 899.691406 -604.167969 899.589844 C -604.03125 899.285156 -603.929688 899.015625 -603.863281 898.710938 C -603.863281 898.710938 -603.863281 898.675781 -603.863281 898.675781 C -603.761719 898.304688 -603.695312 897.933594 -603.660156 897.53125 L 458.511719 785.535156 C 459.117188 787.558594 460.671875 789.28125 462.832031 790.023438 C 466.003906 791.070312 469.347656 789.71875 470.933594 786.882812 L 796.421875 896.042969 C 796.421875 896.113281 796.421875 896.179688 796.421875 896.246094 C 796.421875 896.246094 796.421875 896.28125 796.421875 896.28125 C 796.421875 896.414062 796.390625 896.550781 796.390625 896.71875 C 796.390625 896.820312 796.355469 896.886719 796.355469 896.957031 C 796.355469 896.988281 796.355469 896.988281 796.355469 897.023438 C 796.355469 897.089844 796.355469 897.160156 796.355469 897.191406 C 796.355469 897.191406 796.355469 897.226562 796.355469 897.226562 C 796.355469 897.292969 796.390625 897.359375 796.390625 897.460938 C 796.390625 897.5625 796.390625 897.664062 796.390625 897.730469 C 796.390625 897.800781 796.421875 897.867188 796.421875 897.902344 C 796.457031 898.035156 796.457031 898.136719 796.457031 898.273438 C 796.457031 898.304688 796.457031 898.304688 796.492188 898.339844 C 796.523438 898.542969 796.59375 898.710938 796.660156 898.878906 C 796.691406 898.945312 796.691406 899.046875 796.726562 899.117188 C 796.761719 899.21875 796.792969 899.351562 796.863281 899.453125 C 796.894531 899.554688 796.964844 899.65625 797.03125 899.789062 C 797.0625 899.890625 797.132812 899.992188 797.164062 900.09375 C 797.199219 900.164062 797.234375 900.230469 797.265625 900.332031 C 797.300781 900.363281 797.300781 900.398438 797.335938 900.464844 C 797.367188 900.5 797.367188 900.535156 797.402344 900.566406 C 797.402344 900.601562 797.4375 900.601562 797.4375 900.636719 C 797.503906 900.734375 797.605469 900.871094 797.671875 900.972656 C 797.773438 901.105469 797.839844 901.242188 797.941406 901.34375 C 797.941406 901.34375 797.976562 901.378906 797.976562 901.378906 C 798.007812 901.410156 798.042969 901.445312 798.078125 901.480469 C 798.109375 901.546875 798.179688 901.578125 798.210938 901.648438 C 798.28125 901.75 798.378906 901.816406 798.480469 901.882812 C 798.617188 901.984375 798.71875 902.121094 798.851562 902.222656 C 798.921875 902.253906 798.953125 902.289062 799.023438 902.324219 C 799.089844 902.355469 799.125 902.421875 799.191406 902.457031 C 799.292969 902.523438 799.394531 902.59375 799.496094 902.660156 C 799.628906 902.726562 799.765625 902.828125 799.898438 902.894531 C 799.96875 902.929688 800.066406 902.964844 800.136719 902.996094 C 800.203125 903.03125 800.238281 903.066406 800.304688 903.066406 C 800.40625 903.132812 800.539062 903.167969 800.640625 903.199219 C 800.742188 903.234375 800.8125 903.269531 800.910156 903.300781 C 800.980469 903.335938 801.011719 903.335938 801.082031 903.335938 C 801.183594 903.367188 801.25 903.367188 801.351562 903.402344 C 801.417969 903.4375 801.484375 903.4375 801.554688 903.46875 C 801.722656 903.503906 801.855469 903.539062 802.027344 903.539062 C 802.128906 903.570312 802.261719 903.570312 802.363281 903.605469 C 802.429688 903.605469 802.53125 903.605469 802.601562 903.640625 C 802.699219 903.640625 802.800781 903.640625 802.902344 903.640625 C 802.972656 903.640625 803.003906 903.640625 803.074219 903.640625 C 803.171875 903.640625 803.273438 903.605469 803.375 903.605469 C 803.476562 903.605469 803.578125 903.605469 803.714844 903.605469 C 803.78125 903.605469 803.816406 903.605469 803.882812 903.605469 C 803.917969 903.605469 803.949219 903.605469 803.949219 903.570312 C 804.050781 903.570312 804.152344 903.539062 804.253906 903.503906 C 804.386719 903.46875 804.523438 903.4375 804.691406 903.402344 C 804.828125 903.367188 804.929688 903.335938 805.0625 903.300781 C 805.132812 903.265625 805.164062 903.265625 805.230469 903.265625 C 805.332031 903.234375 805.433594 903.199219 805.535156 903.132812 C 805.671875 903.097656 805.773438 903.03125 805.875 902.964844 C 806.007812 902.894531 806.109375 902.828125 806.246094 902.761719 C 806.3125 902.726562 806.378906 902.695312 806.449219 902.660156 C 806.480469 902.625 806.515625 902.625 806.546875 902.59375 C 806.582031 902.558594 806.648438 902.523438 806.683594 902.492188 C 806.785156 902.421875 806.851562 902.355469 806.953125 902.324219 C 807.089844 902.222656 807.191406 902.152344 807.292969 902.050781 C 807.359375 901.984375 807.460938 901.917969 807.527344 901.851562 C 807.59375 901.78125 807.664062 901.75 807.730469 901.679688 C 807.796875 901.613281 807.863281 901.546875 807.933594 901.480469 C 808.035156 901.378906 808.136719 901.277344 808.238281 901.140625 C 808.304688 901.039062 808.40625 900.972656 808.472656 900.871094 C 808.507812 900.804688 808.574219 900.769531 808.609375 900.703125 C 808.675781 900.601562 808.710938 900.535156 808.777344 900.433594 C 808.84375 900.332031 808.910156 900.195312 808.980469 900.09375 C 809.046875 899.992188 809.082031 899.890625 809.148438 899.757812 C 809.179688 899.691406 809.214844 899.65625 809.25 899.589844 C 809.316406 899.453125 809.351562 899.351562 809.382812 899.21875 C 809.417969 899.148438 809.453125 899.082031 809.484375 898.980469 C 809.519531 898.914062 809.519531 898.878906 809.519531 898.8125 C 809.554688 898.710938 809.585938 898.609375 809.585938 898.542969 C 809.621094 898.476562 809.621094 898.40625 809.652344 898.339844 C 809.6875 898.171875 809.722656 898.035156 809.722656 897.867188 C 809.753906 897.765625 809.753906 897.632812 809.789062 897.53125 C 809.789062 897.460938 809.789062 897.359375 809.824219 897.292969 C 809.824219 897.191406 809.824219 897.089844 809.824219 896.988281 C 809.824219 896.921875 809.824219 896.886719 809.824219 896.820312 C 809.824219 896.71875 809.789062 896.585938 809.789062 896.484375 C 809.789062 896.382812 809.789062 896.28125 809.789062 896.179688 C 809.789062 896.113281 809.789062 896.078125 809.789062 896.011719 C 809.789062 895.976562 809.789062 895.941406 809.753906 895.910156 C 809.753906 895.84375 809.722656 895.773438 809.722656 895.671875 C 809.6875 895.503906 809.652344 895.371094 809.621094 895.199219 C 809.585938 895.097656 809.585938 895 809.550781 894.898438 C 809.519531 894.828125 809.519531 894.761719 809.484375 894.695312 C 809.453125 894.59375 809.453125 894.527344 809.417969 894.425781 C 809.351562 894.289062 809.28125 894.15625 809.214844 894.019531 C 809.179688 893.917969 809.148438 893.78125 809.082031 893.683594 C 809.046875 893.613281 809.011719 893.582031 808.980469 893.511719 C 808.945312 893.445312 808.910156 893.378906 808.878906 893.308594 C 808.84375 893.277344 808.84375 893.242188 808.84375 893.210938 C 808.777344 893.109375 808.675781 893.007812 808.609375 892.90625 C 808.539062 892.839844 808.507812 892.738281 808.4375 892.636719 C 808.40625 892.566406 808.335938 892.535156 808.304688 892.5 C 808.269531 892.433594 808.203125 892.398438 808.167969 892.332031 C 808.066406 892.230469 807.964844 892.128906 807.863281 892.027344 C 807.765625 891.925781 807.664062 891.824219 807.5625 891.722656 C 807.527344 891.691406 807.460938 891.65625 807.425781 891.589844 C 807.390625 891.554688 807.324219 891.523438 807.292969 891.488281 C 807.191406 891.421875 807.089844 891.351562 806.988281 891.285156 C 806.851562 891.183594 806.71875 891.082031 806.582031 890.980469 C 806.515625 890.949219 806.480469 890.914062 806.449219 890.878906 C 806.414062 890.847656 806.347656 890.847656 806.3125 890.8125 C 806.210938 890.777344 806.144531 890.710938 806.042969 890.679688 C 805.90625 890.609375 805.738281 890.542969 805.601562 890.476562 C 805.503906 890.441406 805.402344 890.375 805.300781 890.339844 C 805.265625 890.339844 805.230469 890.304688 805.199219 890.273438 C 805.097656 890.238281 804.996094 890.238281 804.894531 890.207031 C 804.757812 890.171875 804.625 890.136719 804.523438 890.105469 C 804.457031 890.070312 804.386719 890.070312 804.285156 890.035156 L 804.285156 214.988281 C 804.355469 214.988281 804.421875 214.957031 804.488281 214.921875 C 804.625 214.886719 804.757812 214.855469 804.894531 214.820312 C 805.132812 214.753906 805.367188 214.683594 805.570312 214.582031 C 805.738281 214.515625 805.90625 214.414062 806.074219 214.347656 C 806.246094 214.246094 806.414062 214.179688 806.582031 214.078125 C 806.785156 213.941406 806.953125 213.808594 807.15625 213.671875 C 807.257812 213.570312 807.390625 213.503906 807.492188 213.402344 C 807.664062 213.234375 807.832031 213.066406 808 212.894531 C 808.101562 212.796875 808.203125 212.695312 808.304688 212.558594 C 808.4375 212.390625 808.539062 212.222656 808.675781 212.050781 C 808.777344 211.882812 808.878906 211.75 808.980469 211.578125 C 809.082031 211.410156 809.148438 211.242188 809.214844 211.074219 C 809.316406 210.871094 809.382812 210.667969 809.453125 210.464844 C 809.484375 210.398438 809.519531 210.363281 809.519531 210.296875 C 809.550781 210.195312 809.550781 210.09375 809.585938 209.992188 C 809.652344 209.691406 809.722656 209.417969 809.753906 209.117188 C 809.753906 208.980469 809.789062 208.878906 809.789062 208.746094 C 809.789062 208.574219 809.824219 208.441406 809.824219 208.273438 C 809.824219 208.136719 809.789062 208.003906 809.789062 207.832031 C 809.789062 207.664062 809.753906 207.496094 809.722656 207.292969 C 809.6875 207.023438 809.621094 206.785156 809.585938 206.515625 C 809.550781 206.3125 809.484375 206.144531 809.417969 205.941406 C 809.351562 205.742188 809.25 205.503906 809.148438 205.300781 C 809.046875 205.097656 808.945312 204.898438 808.808594 204.695312 C 808.707031 204.523438 808.609375 204.355469 808.507812 204.222656 C 808.371094 204.019531 808.203125 203.816406 808.035156 203.648438 C 807.898438 203.511719 807.796875 203.378906 807.664062 203.277344 C 807.492188 203.109375 807.292969 202.972656 807.089844 202.804688 C 806.917969 202.667969 806.75 202.566406 806.582031 202.433594 C 806.414062 202.332031 806.210938 202.230469 806.007812 202.128906 C 805.804688 202.027344 805.570312 201.925781 805.367188 201.859375 C 805.265625 201.824219 805.164062 201.757812 805.0625 201.722656 C 804.960938 201.691406 804.859375 201.691406 804.757812 201.65625 C 804.625 201.621094 804.457031 201.554688 804.320312 201.519531 L 804.320312 -510.082031 C 804.589844 -510.082031 804.691406 -510.148438 804.828125 -510.183594 Z M 444.164062 493.898438 C 444.535156 492.785156 444.535156 491.636719 444.335938 490.558594 L 650.671875 408.398438 C 650.671875 408.398438 650.671875 408.398438 650.671875 408.433594 C 650.671875 408.433594 650.707031 408.46875 650.707031 408.46875 C 650.773438 408.570312 650.808594 408.636719 650.875 408.703125 C 650.941406 408.769531 651.011719 408.871094 651.078125 408.941406 C 651.179688 409.074219 651.3125 409.242188 651.414062 409.378906 C 651.414062 409.414062 651.449219 409.414062 651.484375 409.414062 C 651.550781 409.480469 651.617188 409.546875 651.6875 409.613281 L 486.832031 661.722656 C 486.664062 661.65625 486.460938 661.589844 486.289062 661.519531 C 486.222656 661.488281 486.15625 661.453125 486.089844 661.453125 C 486.089844 661.453125 486.054688 661.453125 486.054688 661.453125 C 485.917969 661.421875 485.75 661.386719 485.617188 661.351562 C 485.546875 661.351562 485.445312 661.320312 485.378906 661.285156 C 485.277344 661.25 485.175781 661.285156 485.109375 661.25 C 485.074219 661.25 485.042969 661.25 485.007812 661.21875 C 484.90625 661.21875 484.839844 661.183594 484.738281 661.183594 C 484.738281 661.183594 484.703125 661.183594 484.703125 661.183594 C 484.601562 661.183594 484.5 661.183594 484.367188 661.183594 C 484.164062 661.183594 483.996094 661.183594 483.792969 661.183594 L 440.621094 497.882812 C 442.242188 497.171875 443.558594 495.753906 444.164062 493.898438 Z M 607.300781 2.035156 L 800 -504.816406 L 656.511719 396.011719 L 605.882812 14.253906 C 608.3125 13.445312 610.234375 11.25 610.503906 8.550781 C 610.808594 5.847656 609.460938 3.351562 607.300781 2.035156 Z M 800.914062 201.925781 C 800.710938 201.992188 800.472656 202.09375 800.269531 202.195312 C 800.070312 202.296875 799.867188 202.398438 799.664062 202.535156 C 799.496094 202.636719 799.324219 202.734375 799.191406 202.835938 C 798.988281 202.972656 798.785156 203.140625 798.617188 203.308594 C 798.480469 203.445312 798.347656 203.546875 798.210938 203.679688 C 798.042969 203.851562 797.910156 204.050781 797.738281 204.222656 C 797.605469 204.390625 797.503906 204.558594 797.367188 204.761719 C 797.265625 204.929688 797.164062 205.132812 797.0625 205.335938 C 796.964844 205.539062 796.863281 205.773438 796.792969 206.011719 C 796.761719 206.113281 796.691406 206.214844 796.660156 206.3125 C 796.625 206.414062 796.625 206.550781 796.59375 206.652344 C 796.523438 206.855469 796.492188 207.089844 796.457031 207.292969 C 796.421875 207.496094 796.421875 207.664062 796.390625 207.867188 C 796.390625 208.035156 796.355469 208.171875 796.355469 208.339844 C 796.355469 208.441406 796.390625 208.507812 796.390625 208.609375 C 796.390625 208.746094 796.421875 208.847656 796.421875 208.980469 C 796.457031 209.25 796.492188 209.519531 796.523438 209.757812 C 796.558594 209.890625 796.59375 210.027344 796.625 210.164062 C 796.691406 210.398438 796.761719 210.636719 796.828125 210.835938 C 796.894531 211.007812 796.996094 211.175781 797.066406 211.34375 C 797.132812 211.511719 797.234375 211.679688 797.335938 211.851562 C 797.46875 212.050781 797.605469 212.222656 797.738281 212.421875 C 797.839844 212.523438 797.910156 212.660156 798.007812 212.761719 C 798.042969 212.828125 798.109375 212.863281 798.144531 212.929688 L 659.347656 398.679688 C 659.28125 398.644531 659.246094 398.644531 659.179688 398.609375 C 659.011719 398.542969 658.839844 398.476562 658.671875 398.410156 C 658.671875 398.410156 658.640625 398.410156 658.640625 398.410156 L 801.859375 -500.730469 L 801.859375 201.691406 C 801.6875 201.722656 801.554688 201.757812 801.417969 201.824219 C 801.285156 201.792969 801.113281 201.859375 800.914062 201.925781 Z M 641.964844 619.9375 C 641.054688 618.417969 639.601562 617.4375 638.015625 616.964844 L 657.050781 411.539062 C 657.085938 411.539062 657.085938 411.539062 657.121094 411.539062 L 799.226562 887.910156 L 640.75 628.511719 C 643.078125 626.347656 643.71875 622.738281 641.964844 619.9375 Z M 490.308594 664.929688 C 490.273438 664.863281 490.238281 664.796875 490.207031 664.761719 C 490.140625 664.625 490.070312 664.492188 489.96875 664.390625 C 489.902344 664.253906 489.800781 664.121094 489.734375 664.019531 C 489.667969 663.953125 489.597656 663.882812 489.566406 663.78125 C 489.464844 663.648438 489.363281 663.511719 489.261719 663.410156 C 489.195312 663.308594 489.09375 663.242188 489.023438 663.140625 L 653.878906 411.03125 C 653.914062 411.03125 653.945312 411.066406 653.980469 411.066406 C 654.046875 411.101562 654.117188 411.132812 654.183594 411.167969 C 654.25 411.203125 654.351562 411.234375 654.417969 411.269531 C 654.453125 411.269531 654.453125 411.300781 654.488281 411.300781 C 654.519531 411.300781 654.554688 411.300781 654.589844 411.335938 L 635.585938 616.761719 C 634.574219 616.863281 633.59375 617.136719 632.683594 617.707031 C 630.386719 619.125 629.238281 621.65625 629.476562 624.191406 Z M 659.515625 410.761719 C 659.515625 410.761719 659.550781 410.761719 659.515625 410.761719 C 659.585938 410.730469 659.617188 410.730469 659.652344 410.695312 C 659.753906 410.628906 659.886719 410.558594 659.988281 410.492188 C 660.058594 410.457031 660.125 410.425781 660.191406 410.355469 C 660.328125 410.257812 660.460938 410.15625 660.5625 410.054688 C 660.628906 410.019531 660.664062 409.984375 660.730469 409.917969 C 660.867188 409.816406 661 409.714844 661.101562 409.582031 C 661.203125 409.480469 661.304688 409.378906 661.40625 409.277344 C 661.507812 409.140625 661.644531 409.039062 661.746094 408.90625 C 661.777344 408.871094 661.777344 408.871094 661.8125 408.839844 C 661.84375 408.804688 661.84375 408.804688 661.878906 408.769531 C 661.914062 408.703125 661.945312 408.667969 661.980469 408.601562 C 662.046875 408.5 662.117188 408.367188 662.21875 408.265625 C 662.316406 408.128906 662.386719 407.996094 662.453125 407.859375 C 662.488281 407.757812 662.554688 407.65625 662.589844 407.589844 C 662.65625 407.421875 662.722656 407.253906 662.789062 407.082031 C 662.824219 406.980469 662.859375 406.914062 662.890625 406.8125 C 662.890625 406.78125 662.925781 406.746094 662.925781 406.746094 C 662.925781 406.746094 662.925781 406.710938 662.925781 406.710938 C 662.925781 406.679688 662.925781 406.644531 662.960938 406.609375 C 662.992188 406.542969 662.992188 406.476562 662.992188 406.410156 C 663.027344 406.273438 663.0625 406.105469 663.09375 405.96875 C 663.09375 405.867188 663.128906 405.800781 663.164062 405.699219 L 736.949219 402.257812 C 737.65625 405.191406 740.121094 407.253906 743.089844 407.453125 L 800.203125 882.273438 Z M 742.6875 393.953125 C 739.546875 394.359375 737.21875 396.753906 736.78125 399.757812 L 662.992188 403.203125 C 662.960938 403.101562 662.925781 403.03125 662.890625 402.929688 C 662.859375 402.761719 662.789062 402.59375 662.722656 402.425781 C 662.691406 402.359375 662.691406 402.289062 662.691406 402.257812 C 662.691406 402.222656 662.65625 402.222656 662.65625 402.1875 C 662.65625 402.1875 662.65625 402.15625 662.65625 402.15625 C 662.621094 402.054688 662.554688 401.953125 662.488281 401.816406 C 662.453125 401.75 662.417969 401.648438 662.386719 401.582031 C 662.351562 401.515625 662.285156 401.414062 662.25 401.34375 C 662.183594 401.242188 662.148438 401.140625 662.082031 401.042969 C 662.015625 400.941406 661.945312 400.871094 661.878906 400.769531 C 661.8125 400.703125 661.777344 400.601562 661.710938 400.535156 C 661.675781 400.46875 661.609375 400.433594 661.574219 400.367188 C 661.507812 400.296875 661.472656 400.230469 661.40625 400.164062 L 799.796875 214.957031 L 744.273438 393.953125 C 743.765625 393.886719 743.226562 393.886719 742.6875 393.953125 Z M 490.511719 670.636719 C 490.613281 670.398438 490.679688 670.164062 490.746094 669.925781 C 490.746094 669.925781 490.746094 669.890625 490.746094 669.890625 C 490.746094 669.859375 490.746094 669.859375 490.78125 669.824219 C 490.8125 669.691406 490.847656 669.554688 490.882812 669.417969 C 490.914062 669.320312 490.949219 669.21875 490.949219 669.117188 C 490.949219 669.015625 490.949219 668.945312 490.984375 668.847656 C 490.984375 668.710938 491.015625 668.609375 491.050781 668.476562 C 491.050781 668.476562 491.050781 668.476562 491.050781 668.441406 C 491.050781 668.40625 491.050781 668.339844 491.050781 668.304688 C 491.050781 668.238281 491.050781 668.171875 491.050781 668.101562 C 491.050781 667.902344 491.050781 667.730469 491.050781 667.53125 C 491.050781 667.460938 491.050781 667.394531 491.050781 667.328125 L 630.152344 626.519531 C 630.21875 626.6875 630.285156 626.820312 630.386719 626.992188 C 632.109375 629.792969 635.617188 630.941406 638.589844 629.828125 L 798.652344 891.824219 C 798.617188 891.859375 798.582031 891.925781 798.515625 891.960938 L 490.441406 670.90625 C 490.441406 670.804688 490.476562 670.734375 490.511719 670.636719 Z M 745.554688 407.183594 C 748.628906 406.207031 750.617188 403.234375 750.246094 399.894531 C 749.945312 397.566406 748.558594 395.707031 746.667969 394.695312 L 801.890625 216.644531 L 801.890625 875.722656 Z M 798.28125 -507.382812 L 604.9375 1.125 C 604.800781 1.089844 604.632812 1.054688 604.496094 1.023438 C 601.222656 0.652344 598.1875 2.742188 597.242188 5.816406 L 460.671875 -8.933594 C 460.535156 -10.554688 459.828125 -12.074219 458.714844 -13.1875 Z M 460.402344 -6.4375 L 596.96875 8.3125 C 597.207031 11.484375 599.738281 14.1875 603.011719 14.523438 C 603.148438 14.523438 603.25 14.523438 603.351562 14.523438 L 654.117188 397.191406 L 457.9375 -2.996094 C 459.085938 -3.839844 459.960938 -5.019531 460.402344 -6.4375 Z M 219.058594 276.320312 C 220.34375 278.683594 222.90625 280.203125 225.742188 279.898438 C 228.074219 279.628906 230.03125 278.242188 231.042969 276.285156 L 649.625 404.011719 C 649.625 404.046875 649.625 404.078125 649.625 404.113281 C 649.625 404.148438 649.625 404.179688 649.625 404.246094 C 649.625 404.246094 649.625 404.28125 649.625 404.28125 C 649.625 404.417969 649.625 404.550781 649.625 404.71875 C 649.625 404.71875 649.625 404.753906 649.625 404.753906 C 649.625 404.820312 649.625 404.855469 649.625 404.921875 C 649.625 404.921875 649.625 404.957031 649.625 404.957031 C 649.625 404.992188 649.625 405.058594 649.625 405.09375 C 649.625 405.09375 649.625 405.125 649.625 405.125 C 649.625 405.191406 649.625 405.261719 649.625 405.328125 C 649.625 405.394531 649.660156 405.464844 649.660156 405.53125 C 649.660156 405.5625 649.660156 405.632812 649.660156 405.664062 C 649.660156 405.765625 649.695312 405.867188 649.726562 405.9375 C 649.726562 405.96875 649.726562 406.003906 649.726562 406.035156 L 443.390625 488.195312 C 442.578125 486.910156 441.332031 485.867188 439.746094 485.359375 C 436.570312 484.347656 433.230469 485.796875 431.710938 488.597656 L -7.191406 348.859375 C -7.160156 348.519531 -7.125 348.183594 -7.125 347.84375 C -7.125 347.640625 -7.191406 347.441406 -7.191406 347.238281 Z M -7.96875 351.253906 L 430.933594 490.996094 C 430.53125 494.167969 432.453125 497.273438 435.625 498.285156 C 436.46875 498.554688 437.347656 498.625 438.15625 498.589844 L 481.328125 661.859375 C 481.296875 661.859375 481.296875 661.890625 481.261719 661.890625 C 481.226562 661.925781 481.195312 661.925781 481.160156 661.960938 C 481.027344 662.027344 480.925781 662.09375 480.824219 662.164062 C 480.789062 662.195312 480.753906 662.195312 480.722656 662.230469 C 480.585938 662.332031 480.417969 662.398438 480.28125 662.5 C 480.214844 662.566406 480.148438 662.636719 480.082031 662.667969 C 479.980469 662.734375 479.910156 662.804688 479.808594 662.90625 C 479.777344 662.9375 479.777344 662.9375 479.742188 662.972656 C 479.640625 663.074219 479.507812 663.175781 479.40625 663.277344 C 479.304688 663.378906 479.238281 663.480469 479.167969 663.578125 C 479.101562 663.679688 479.035156 663.75 478.964844 663.851562 C 478.863281 663.953125 478.765625 664.050781 478.695312 664.1875 C 478.664062 664.222656 478.664062 664.253906 478.628906 664.289062 C 478.5625 664.390625 478.492188 664.523438 478.425781 664.660156 C 478.359375 664.761719 478.324219 664.828125 478.292969 664.929688 C 478.257812 665.03125 478.191406 665.097656 478.15625 665.199219 C 478.15625 665.234375 478.121094 665.265625 478.121094 665.300781 C 478.054688 665.46875 477.988281 665.671875 477.921875 665.839844 C 477.886719 665.941406 477.851562 666.042969 477.820312 666.109375 C 477.820312 666.179688 477.785156 666.210938 477.785156 666.246094 C 477.785156 666.246094 477.785156 666.28125 477.785156 666.28125 L 0.976562 634.753906 C 0.605469 631.714844 -1.625 629.421875 -4.695312 628.878906 L -12.425781 354.628906 C -10.535156 354.257812 -8.914062 352.976562 -7.96875 351.253906 Z M -6.28125 642.417969 C -2.871094 642.550781 -0.0703125 640.457031 0.738281 637.320312 L 477.546875 668.847656 C 477.546875 668.847656 477.546875 668.878906 477.546875 668.878906 C 477.582031 669.117188 477.617188 669.320312 477.683594 669.554688 C 477.683594 669.621094 477.683594 669.691406 477.71875 669.757812 C 477.71875 669.792969 477.75 669.824219 477.75 669.859375 C 477.75 669.890625 477.75 669.925781 477.785156 669.960938 C 477.820312 670.027344 477.851562 670.09375 477.886719 670.164062 C 477.953125 670.363281 478.019531 670.566406 478.121094 670.734375 C 478.191406 670.835938 478.222656 670.972656 478.257812 671.105469 C 478.257812 671.105469 478.292969 671.140625 478.292969 671.140625 C 478.324219 671.207031 478.394531 671.277344 478.425781 671.378906 C 478.492188 671.480469 478.527344 671.546875 478.59375 671.648438 C 478.695312 671.816406 478.796875 671.984375 478.898438 672.152344 C 478.933594 672.1875 478.964844 672.253906 479 672.289062 C 479.035156 672.324219 479.066406 672.355469 479.101562 672.390625 C 479.136719 672.457031 479.203125 672.492188 479.238281 672.523438 C 479.40625 672.695312 479.539062 672.863281 479.710938 673.03125 C 479.777344 673.097656 479.84375 673.167969 479.910156 673.199219 C 479.910156 673.199219 479.945312 673.234375 479.945312 673.234375 C 479.980469 673.234375 479.980469 673.269531 480.011719 673.269531 C 480.082031 673.300781 480.148438 673.335938 480.183594 673.402344 C 480.316406 673.503906 480.484375 673.605469 480.621094 673.707031 C 480.753906 673.773438 480.855469 673.875 480.992188 673.941406 C 481.027344 673.976562 481.058594 673.976562 481.09375 673.976562 C 481.160156 674.011719 481.261719 674.042969 481.328125 674.078125 C 481.398438 674.113281 481.464844 674.144531 481.53125 674.179688 C 481.667969 674.246094 481.769531 674.3125 481.902344 674.347656 L 464.855469 776.621094 C 462.054688 776.691406 459.523438 778.410156 458.546875 781.214844 C 458.375 781.753906 458.273438 782.292969 458.242188 782.800781 L -602.3125 894.726562 L -11.445312 639.414062 C -10.332031 641.101562 -8.542969 642.214844 -6.28125 642.417969 Z M 467.355469 777.09375 L 484.402344 674.820312 C 484.46875 674.820312 484.570312 674.785156 484.636719 674.785156 C 484.773438 674.785156 484.941406 674.753906 485.074219 674.753906 C 485.074219 674.753906 485.109375 674.753906 485.109375 674.753906 C 485.144531 674.753906 485.175781 674.753906 485.210938 674.753906 C 485.414062 674.71875 485.582031 674.683594 485.785156 674.652344 C 485.851562 674.652344 485.886719 674.652344 485.953125 674.617188 C 485.988281 674.617188 486.019531 674.582031 486.054688 674.582031 C 486.089844 674.582031 486.121094 674.582031 486.15625 674.550781 C 486.257812 674.515625 486.324219 674.484375 486.390625 674.449219 C 486.425781 674.449219 486.492188 674.414062 486.527344 674.414062 C 486.664062 674.382812 486.761719 674.3125 486.898438 674.246094 C 487.101562 674.144531 487.304688 674.078125 487.472656 673.976562 C 487.640625 673.875 487.777344 673.773438 487.945312 673.671875 C 488.078125 673.605469 488.179688 673.539062 488.316406 673.4375 C 488.382812 673.367188 488.453125 673.300781 488.550781 673.269531 C 488.6875 673.167969 488.789062 673.066406 488.921875 672.929688 L 795.613281 892.972656 L 471.742188 784.351562 C 472.183594 781.28125 470.425781 778.242188 467.355469 777.09375 Z M 467.355469 777.09375 " fill-opacity="1" fill-rule="nonzero"/></g></g></g></g></svg>