<svg xmlns="http://www.w3.org/2000/svg" xmlns:xlink="http://www.w3.org/1999/xlink" width="1080" zoomAndPan="magnify" viewBox="0 0 810 809.999993" height="1080" preserveAspectRatio="xMidYMid meet" version="1.0"><path fill="#b48400" d="M 809.996094 405 C 809.996094 628.675781 628.675781 810 405 810 C 181.324219 810 0 628.675781 0 405 C 0 181.328125 181.324219 0.00390625 405 0.00390625 C 628.675781 0.00390625 809.996094 181.328125 809.996094 405 " fill-opacity="1" fill-rule="nonzero"/><path fill="#ffffff" d="M 355.269531 422.042969 L 178.199219 552.253906 L 178.199219 258.878906 Z M 355.269531 422.042969 " fill-opacity="1" fill-rule="nonzero"/><path fill="#ffffff" d="M 624.1875 555.882812 L 185.816406 555.882812 L 360.839844 427.179688 L 402.398438 465.476562 C 403.828125 466.785156 406.171875 466.785156 407.605469 465.476562 L 449.160156 427.179688 L 624.1875 555.882812 " fill-opacity="1" fill-rule="nonzero"/><path fill="#ffffff" d="M 631.800781 258.878906 L 631.800781 552.253906 L 454.730469 422.042969 Z M 631.800781 258.878906 " fill-opacity="1" fill-rule="nonzero"/><path fill="#ffffff" d="M 625.996094 254.117188 L 446.425781 419.59375 C 446.382812 419.621094 446.347656 419.65625 446.316406 419.6875 L 405 457.757812 L 363.6875 419.6875 C 363.652344 419.65625 363.617188 419.621094 363.578125 419.59375 L 184.003906 254.117188 L 625.996094 254.117188 " fill-opacity="1" fill-rule="nonzero"/></svg>