<svg xmlns="http://www.w3.org/2000/svg" xmlns:xlink="http://www.w3.org/1999/xlink" width="1080" zoomAndPan="magnify" viewBox="0 0 810 809.999993" height="1080" preserveAspectRatio="xMidYMid meet" version="1.0"><defs><filter x="0%" y="0%" width="100%" height="100%" id="12a7742127"><feColorMatrix values="0 0 0 0 1 0 0 0 0 1 0 0 0 0 1 0 0 0 1 0" color-interpolation-filters="sRGB"/></filter><clipPath id="61a8fe79ff"><path d="M 143.800781 407.566406 L 167.441406 407.566406 L 167.441406 431.207031 L 143.800781 431.207031 Z M 143.800781 407.566406 " clip-rule="nonzero"/></clipPath><clipPath id="204395bb27"><path d="M 155.621094 407.566406 C 149.09375 407.566406 143.800781 412.859375 143.800781 419.386719 C 143.800781 425.914062 149.09375 431.207031 155.621094 431.207031 C 162.148438 431.207031 167.441406 425.914062 167.441406 419.386719 C 167.441406 412.859375 162.148438 407.566406 155.621094 407.566406 Z M 155.621094 407.566406 " clip-rule="nonzero"/></clipPath><mask id="22903b836e"><g filter="url(#12a7742127)"><rect x="-81" width="972" fill="#000000" y="-80.999999" height="971.999992" fill-opacity="0.14"/></g></mask><clipPath id="a3e2548aa3"><path d="M 88 27 L 810 27 L 810 770 L 88 770 Z M 88 27 " clip-rule="nonzero"/></clipPath><clipPath id="bd73d0e2cb"><path d="M 246 128 L 810 128 L 810 711 L 246 711 Z M 246 128 " clip-rule="nonzero"/></clipPath><clipPath id="05a50e0c27"><path d="M 0 0 L 810 0 L 810 810 L 0 810 Z M 0 0 " clip-rule="nonzero"/></clipPath><clipPath id="54d7698cfc"><path d="M 0 0 L 786 0 L 786 744 L 0 744 Z M 0 0 " clip-rule="nonzero"/></clipPath><clipPath id="a88368546e"><path d="M 31 0 L 710 0 L 710 597 L 31 597 Z M 31 0 " clip-rule="nonzero"/></clipPath><clipPath id="0099d2dd96"><path d="M 110 0 L 578 0 L 578 468 L 110 468 Z M 110 0 " clip-rule="nonzero"/></clipPath><clipPath id="9be345771d"><path d="M 380 189 L 810 189 L 810 645 L 380 645 Z M 380 189 " clip-rule="nonzero"/></clipPath><clipPath id="588cea9831"><path d="M 462 250 L 810 250 L 810 619 L 462 619 Z M 462 250 " clip-rule="nonzero"/></clipPath><clipPath id="545aeaa55b"><path d="M 499 32 L 810 32 L 810 419 L 499 419 Z M 499 32 " clip-rule="nonzero"/></clipPath><clipPath id="5f01cc149c"><rect x="0" width="810" y="0" height="810"/></clipPath><clipPath id="5a3aa35fe0"><path d="M 744.230469 264.648438 L 759.230469 264.648438 L 759.230469 279.648438 L 744.230469 279.648438 Z M 744.230469 264.648438 " clip-rule="nonzero"/></clipPath><clipPath id="b73b1aa62a"><path d="M 744.230469 329.605469 L 759.230469 329.605469 L 759.230469 344.605469 L 744.230469 344.605469 Z M 744.230469 329.605469 " clip-rule="nonzero"/></clipPath><clipPath id="51a27d5761"><path d="M 744.230469 394.558594 L 759.230469 394.558594 L 759.230469 409.558594 L 744.230469 409.558594 Z M 744.230469 394.558594 " clip-rule="nonzero"/></clipPath><clipPath id="81e850023e"><path d="M 744.230469 459.515625 L 759.230469 459.515625 L 759.230469 474.515625 L 744.230469 474.515625 Z M 744.230469 459.515625 " clip-rule="nonzero"/></clipPath><clipPath id="52b2d3c076"><path d="M 744.230469 524.46875 L 759.230469 524.46875 L 759.230469 539.46875 L 744.230469 539.46875 Z M 744.230469 524.46875 " clip-rule="nonzero"/></clipPath><clipPath id="5886ffaddd"><path d="M 744.230469 589.421875 L 759.230469 589.421875 L 759.230469 604.421875 L 744.230469 604.421875 Z M 744.230469 589.421875 " clip-rule="nonzero"/></clipPath></defs><g clip-path="url(#61a8fe79ff)"><g clip-path="url(#204395bb27)"><path fill="#ffffff" d="M 143.800781 407.566406 L 167.441406 407.566406 L 167.441406 431.207031 L 143.800781 431.207031 Z M 143.800781 407.566406 " fill-opacity="1" fill-rule="nonzero"/></g></g><g mask="url(#22903b836e)"><g transform="matrix(1, 0, 0, 1, 0, 0.000000000000039746)"><g clip-path="url(#5f01cc149c)"><path fill="#066cb1" d="M 376.488281 656.175781 C 372.492188 656.175781 369.207031 652.894531 369.207031 648.902344 C 369.207031 644.910156 372.492188 641.625 376.488281 641.625 C 380.480469 641.625 383.765625 644.910156 383.765625 648.902344 C 383.765625 652.894531 380.480469 656.175781 376.488281 656.175781 Z M 376.488281 643.265625 C 373.378906 643.265625 370.894531 645.796875 370.894531 648.855469 C 370.894531 651.960938 373.425781 654.445312 376.488281 654.445312 C 379.59375 654.445312 382.082031 651.917969 382.082031 648.855469 C 382.082031 645.796875 379.550781 643.265625 376.488281 643.265625 Z M 376.488281 643.265625 " fill-opacity="1" fill-rule="nonzero"/><path fill="#066cb1" d="M 28.09375 608.3125 C 24.097656 608.3125 20.8125 605.03125 20.8125 601.039062 C 20.8125 597.046875 24.097656 593.765625 28.09375 593.765625 C 32.085938 593.765625 35.371094 597.046875 35.371094 601.039062 C 35.371094 605.03125 32.132812 608.3125 28.09375 608.3125 Z M 28.09375 595.449219 C 24.984375 595.449219 22.5 597.976562 22.5 601.039062 C 22.5 604.144531 25.03125 606.628906 28.09375 606.628906 C 31.199219 606.628906 33.6875 604.101562 33.6875 601.039062 C 33.730469 597.933594 31.199219 595.449219 28.09375 595.449219 Z M 28.09375 595.449219 " fill-opacity="1" fill-rule="nonzero"/><path fill="#066cb1" d="M 107.28125 478.347656 C 103.285156 478.347656 100 475.0625 100 471.070312 C 100 467.078125 103.285156 463.796875 107.28125 463.796875 C 111.273438 463.796875 114.558594 467.078125 114.558594 471.070312 C 114.558594 475.0625 111.273438 478.347656 107.28125 478.347656 Z M 107.28125 465.484375 C 104.171875 465.484375 101.6875 468.011719 101.6875 471.070312 C 101.6875 474.175781 104.21875 476.660156 107.28125 476.660156 C 110.386719 476.660156 112.871094 474.132812 112.871094 471.070312 C 112.871094 468.011719 110.386719 465.484375 107.28125 465.484375 Z M 107.28125 465.484375 " fill-opacity="1" fill-rule="nonzero"/><path fill="#066cb1" d="M 459.003906 630.183594 C 455.007812 630.183594 451.722656 626.898438 451.722656 622.90625 C 451.722656 618.914062 455.007812 615.632812 459.003906 615.632812 C 462.996094 615.632812 466.28125 618.914062 466.28125 622.90625 C 466.28125 626.898438 462.996094 630.183594 459.003906 630.183594 Z M 459.003906 617.316406 C 455.894531 617.316406 453.410156 619.847656 453.410156 622.90625 C 453.410156 626.011719 455.941406 628.496094 459.003906 628.496094 C 462.109375 628.496094 464.597656 625.96875 464.597656 622.90625 C 464.597656 619.800781 462.066406 617.316406 459.003906 617.316406 Z M 459.003906 617.316406 " fill-opacity="1" fill-rule="nonzero"/><path fill="#066cb1" d="M 592.207031 374.683594 C 588.214844 374.683594 584.929688 371.398438 584.929688 367.40625 C 584.929688 363.414062 588.214844 360.132812 592.207031 360.132812 C 596.203125 360.132812 599.488281 363.414062 599.488281 367.40625 C 599.488281 371.398438 596.203125 374.683594 592.207031 374.683594 Z M 592.207031 361.820312 C 589.101562 361.820312 586.617188 364.347656 586.617188 367.40625 C 586.617188 370.46875 589.144531 372.996094 592.207031 372.996094 C 595.269531 372.996094 597.800781 370.46875 597.800781 367.40625 C 597.800781 364.347656 595.269531 361.820312 592.207031 361.820312 Z M 592.207031 361.820312 " fill-opacity="1" fill-rule="nonzero"/><path fill="#f59520" d="M 98.933594 766.980469 C 98.933594 767.472656 98.886719 767.960938 98.789062 768.441406 C 98.695312 768.925781 98.550781 769.394531 98.363281 769.847656 C 98.175781 770.304688 97.945312 770.734375 97.671875 771.144531 C 97.398438 771.554688 97.085938 771.933594 96.738281 772.28125 C 96.390625 772.628906 96.011719 772.941406 95.601562 773.214844 C 95.191406 773.488281 94.757812 773.71875 94.304688 773.90625 C 93.847656 774.09375 93.378906 774.238281 92.898438 774.332031 C 92.414062 774.429688 91.925781 774.476562 91.433594 774.476562 C 90.941406 774.476562 90.453125 774.429688 89.96875 774.332031 C 89.488281 774.238281 89.019531 774.09375 88.5625 773.90625 C 88.109375 773.71875 87.675781 773.488281 87.265625 773.214844 C 86.855469 772.941406 86.476562 772.628906 86.128906 772.28125 C 85.78125 771.933594 85.46875 771.554688 85.195312 771.144531 C 84.921875 770.734375 84.691406 770.304688 84.503906 769.847656 C 84.316406 769.394531 84.171875 768.925781 84.074219 768.441406 C 83.980469 767.960938 83.933594 767.472656 83.933594 766.980469 C 83.933594 766.488281 83.980469 766 84.074219 765.519531 C 84.171875 765.035156 84.316406 764.566406 84.503906 764.113281 C 84.691406 763.65625 84.921875 763.222656 85.195312 762.816406 C 85.46875 762.40625 85.78125 762.027344 86.128906 761.679688 C 86.476562 761.332031 86.855469 761.019531 87.265625 760.746094 C 87.675781 760.472656 88.109375 760.242188 88.5625 760.054688 C 89.019531 759.867188 89.488281 759.722656 89.96875 759.628906 C 90.453125 759.53125 90.941406 759.484375 91.433594 759.484375 C 91.925781 759.484375 92.414062 759.53125 92.898438 759.628906 C 93.378906 759.722656 93.847656 759.867188 94.304688 760.054688 C 94.757812 760.242188 95.191406 760.472656 95.601562 760.746094 C 96.011719 761.019531 96.390625 761.332031 96.738281 761.679688 C 97.085938 762.027344 97.398438 762.40625 97.671875 762.816406 C 97.945312 763.222656 98.175781 763.65625 98.363281 764.113281 C 98.550781 764.566406 98.695312 765.035156 98.789062 765.519531 C 98.886719 766 98.933594 766.488281 98.933594 766.980469 Z M 98.933594 766.980469 " fill-opacity="1" fill-rule="nonzero"/><path fill="#f59520" d="M 118.996094 791.15625 C 118.996094 791.648438 118.949219 792.136719 118.855469 792.617188 C 118.757812 793.101562 118.613281 793.570312 118.425781 794.023438 C 118.238281 794.480469 118.007812 794.910156 117.734375 795.320312 C 117.460938 795.730469 117.148438 796.109375 116.800781 796.457031 C 116.453125 796.804688 116.074219 797.113281 115.664062 797.386719 C 115.253906 797.660156 114.820312 797.890625 114.367188 798.082031 C 113.910156 798.269531 113.441406 798.410156 112.960938 798.507812 C 112.476562 798.601562 111.988281 798.652344 111.496094 798.652344 C 111.003906 798.652344 110.515625 798.601562 110.03125 798.507812 C 109.550781 798.410156 109.082031 798.269531 108.625 798.082031 C 108.171875 797.890625 107.738281 797.660156 107.328125 797.386719 C 106.917969 797.113281 106.539062 796.804688 106.191406 796.457031 C 105.84375 796.109375 105.53125 795.730469 105.257812 795.320312 C 104.984375 794.910156 104.753906 794.480469 104.566406 794.023438 C 104.378906 793.570312 104.234375 793.101562 104.140625 792.617188 C 104.042969 792.136719 103.996094 791.648438 103.996094 791.15625 C 103.996094 790.664062 104.042969 790.175781 104.140625 789.691406 C 104.234375 789.210938 104.378906 788.742188 104.566406 788.285156 C 104.753906 787.832031 104.984375 787.398438 105.257812 786.992188 C 105.53125 786.582031 105.84375 786.203125 106.191406 785.855469 C 106.539062 785.507812 106.917969 785.195312 107.328125 784.921875 C 107.738281 784.648438 108.171875 784.417969 108.625 784.230469 C 109.082031 784.039062 109.550781 783.898438 110.03125 783.800781 C 110.515625 783.707031 111.003906 783.660156 111.496094 783.660156 C 111.988281 783.660156 112.476562 783.707031 112.960938 783.800781 C 113.441406 783.898438 113.910156 784.039062 114.367188 784.230469 C 114.820312 784.417969 115.253906 784.648438 115.664062 784.921875 C 116.074219 785.195312 116.453125 785.507812 116.800781 785.855469 C 117.148438 786.203125 117.460938 786.582031 117.734375 786.992188 C 118.007812 787.398438 118.238281 787.832031 118.425781 788.285156 C 118.613281 788.742188 118.757812 789.210938 118.855469 789.691406 C 118.949219 790.175781 118.996094 790.664062 118.996094 791.15625 Z M 118.996094 791.15625 " fill-opacity="1" fill-rule="nonzero"/><path fill="#f59520" d="M 255.753906 708.605469 C 255.753906 709.097656 255.707031 709.585938 255.609375 710.066406 C 255.515625 710.550781 255.371094 711.019531 255.183594 711.472656 C 254.996094 711.929688 254.765625 712.359375 254.488281 712.769531 C 254.214844 713.179688 253.90625 713.558594 253.558594 713.90625 C 253.210938 714.253906 252.832031 714.566406 252.421875 714.839844 C 252.011719 715.113281 251.578125 715.34375 251.125 715.53125 C 250.667969 715.71875 250.199219 715.863281 249.714844 715.957031 C 249.234375 716.054688 248.746094 716.101562 248.253906 716.101562 C 247.761719 716.101562 247.273438 716.054688 246.789062 715.957031 C 246.304688 715.863281 245.835938 715.71875 245.382812 715.53125 C 244.925781 715.34375 244.496094 715.113281 244.085938 714.839844 C 243.675781 714.566406 243.296875 714.253906 242.949219 713.90625 C 242.601562 713.558594 242.289062 713.179688 242.015625 712.769531 C 241.742188 712.359375 241.511719 711.929688 241.324219 711.472656 C 241.132812 711.019531 240.992188 710.550781 240.894531 710.066406 C 240.800781 709.585938 240.75 709.097656 240.75 708.605469 C 240.75 708.113281 240.800781 707.625 240.894531 707.144531 C 240.992188 706.660156 241.132812 706.191406 241.324219 705.738281 C 241.511719 705.28125 241.742188 704.851562 242.015625 704.441406 C 242.289062 704.03125 242.601562 703.652344 242.949219 703.304688 C 243.296875 702.957031 243.675781 702.644531 244.085938 702.371094 C 244.496094 702.097656 244.925781 701.867188 245.382812 701.679688 C 245.835938 701.492188 246.304688 701.347656 246.789062 701.253906 C 247.273438 701.15625 247.761719 701.109375 248.253906 701.109375 C 248.746094 701.109375 249.234375 701.15625 249.714844 701.253906 C 250.199219 701.347656 250.667969 701.492188 251.125 701.679688 C 251.578125 701.867188 252.011719 702.097656 252.421875 702.371094 C 252.832031 702.644531 253.210938 702.957031 253.558594 703.304688 C 253.90625 703.652344 254.214844 704.03125 254.488281 704.441406 C 254.765625 704.851562 254.996094 705.28125 255.183594 705.738281 C 255.371094 706.191406 255.515625 706.660156 255.609375 707.144531 C 255.707031 707.625 255.753906 708.113281 255.753906 708.605469 Z M 255.753906 708.605469 " fill-opacity="1" fill-rule="nonzero"/><g clip-path="url(#a3e2548aa3)"><path fill="#f59520" d="M 94.183594 769.773438 L 88.636719 764.230469 L 425.847656 427.246094 L 425.847656 346.871094 L 427 345.71875 L 614.800781 158.039062 L 709.433594 158.039062 L 837.714844 27.851562 L 843.304688 33.351562 L 712.71875 165.890625 L 618.042969 165.890625 L 433.703125 350.109375 L 433.703125 430.484375 L 432.546875 431.636719 Z M 94.183594 769.773438 " fill-opacity="1" fill-rule="nonzero"/></g><g clip-path="url(#bd73d0e2cb)"><path fill="#f59520" d="M 250.207031 710.601562 L 246.253906 706.609375 L 510.136719 442.949219 L 560.117188 442.949219 L 677.785156 325.3125 L 677.785156 283.617188 L 833.054688 128.453125 L 837.003906 132.402344 L 683.425781 285.921875 L 683.425781 327.664062 L 562.425781 448.539062 L 512.445312 448.539062 Z M 250.207031 710.601562 " fill-opacity="1" fill-rule="nonzero"/></g><g clip-path="url(#05a50e0c27)"><path fill="#066cb1" d="M -72.933594 863.945312 L -74.128906 862.792969 L 335.695312 453.238281 L 335.695312 381.070312 L 623.988281 93.011719 L 718.800781 93.011719 L 834.429688 -22.539062 L 835.628906 -21.339844 L 719.511719 94.699219 L 624.65625 94.699219 L 337.382812 381.78125 L 337.382812 453.90625 Z M -72.933594 863.945312 " fill-opacity="1" fill-rule="nonzero"/></g><g clip-path="url(#54d7698cfc)"><path fill="#066cb1" d="M -22.730469 743.738281 L -23.882812 742.539062 L 255.089844 463.753906 L 255.089844 374.015625 L 592.429688 36.902344 L 688.972656 36.902344 L 784.09375 -58.15625 L 785.292969 -56.960938 L 689.683594 38.585938 L 593.140625 38.585938 L 256.773438 374.683594 L 256.773438 464.417969 L 256.554688 464.683594 Z M -22.730469 743.738281 " fill-opacity="1" fill-rule="nonzero"/></g><g clip-path="url(#a88368546e)"><path fill="#066cb1" d="M 32.222656 596.914062 L 31.023438 595.761719 L 206.527344 420.371094 L 206.527344 369.980469 L 206.796875 369.757812 L 605.570312 -28.792969 L 678.453125 -28.792969 L 707.835938 -58.15625 L 709.035156 -56.960938 L 679.164062 -27.105469 L 606.28125 -27.105469 L 208.214844 370.691406 L 208.214844 421.035156 L 207.949219 421.300781 Z M 32.222656 596.914062 " fill-opacity="1" fill-rule="nonzero"/></g><g clip-path="url(#0099d2dd96)"><path fill="#066cb1" d="M 112.074219 467.125 L 110.917969 465.925781 L 148.335938 428.53125 L 148.335938 369.625 L 576.40625 -58.15625 L 577.605469 -56.960938 L 150.023438 370.335938 L 150.023438 429.199219 Z M 112.074219 467.125 " fill-opacity="1" fill-rule="nonzero"/></g><g clip-path="url(#9be345771d)"><path fill="#066cb1" d="M 381.28125 644.777344 L 380.082031 643.578125 L 485.769531 537.960938 L 541.296875 537.960938 L 756.707031 322.652344 L 756.707031 269.023438 L 835.847656 189.933594 L 837.046875 191.132812 L 758.394531 269.734375 L 758.394531 323.359375 L 541.960938 539.648438 L 486.480469 539.648438 Z M 381.28125 644.777344 " fill-opacity="1" fill-rule="nonzero"/></g><g clip-path="url(#588cea9831)"><path fill="#066cb1" d="M 463.265625 618.117188 L 462.066406 616.917969 L 497.796875 581.210938 L 557.542969 581.210938 L 813.035156 325.890625 C 823.597656 315.332031 812.902344 270.042969 812.8125 269.601562 L 812.679688 269.113281 L 834.519531 250.660156 L 835.582031 251.945312 L 814.542969 269.734375 C 815.785156 275.054688 824.929688 316.398438 814.1875 327.085938 L 558.207031 582.898438 L 498.464844 582.898438 Z M 463.265625 618.117188 " fill-opacity="1" fill-rule="nonzero"/></g><path fill="#f59520" d="M 113.492188 793.152344 L 109.5 789.203125 L 478.753906 420.195312 L 478.753906 336.800781 L 630.027344 185.675781 L 633.976562 189.625 L 484.347656 339.152344 L 484.347656 422.5 L 483.550781 423.34375 Z M 113.492188 793.152344 " fill-opacity="1" fill-rule="nonzero"/><g clip-path="url(#545aeaa55b)"><path fill="#066cb1" d="M 558.164062 418.464844 L 499.882812 418.464844 L 499.882812 416.246094 L 557.277344 416.246094 L 642.988281 330.546875 L 642.988281 252.964844 L 643.296875 252.65625 L 863.234375 32.863281 L 864.789062 34.460938 L 645.207031 253.898438 L 645.207031 331.480469 L 644.894531 331.832031 Z M 558.164062 418.464844 " fill-opacity="1" fill-rule="nonzero"/></g><path fill="#066cb1" d="M 500.992188 410.214844 L 498.773438 410.214844 L 498.773438 342.347656 L 499.085938 341.992188 L 605.878906 235.265625 L 633.132812 235.265625 L 633.132812 328.375 L 597.402344 364.035156 L 595.804688 362.484375 L 630.871094 327.441406 L 630.871094 237.53125 L 606.8125 237.53125 L 500.992188 343.277344 Z M 500.992188 410.214844 " fill-opacity="1" fill-rule="nonzero"/><path fill="#f59520" d="M 637.75 187.628906 C 637.75 188.121094 637.703125 188.605469 637.605469 189.089844 C 637.507812 189.574219 637.367188 190.042969 637.179688 190.496094 C 636.988281 190.949219 636.757812 191.382812 636.484375 191.792969 C 636.210938 192.203125 635.902344 192.578125 635.550781 192.929688 C 635.203125 193.277344 634.824219 193.585938 634.414062 193.859375 C 634.007812 194.132812 633.574219 194.363281 633.117188 194.554688 C 632.664062 194.742188 632.195312 194.882812 631.710938 194.980469 C 631.230469 195.074219 630.742188 195.125 630.25 195.125 C 629.757812 195.125 629.269531 195.074219 628.785156 194.980469 C 628.300781 194.882812 627.832031 194.742188 627.378906 194.554688 C 626.921875 194.363281 626.492188 194.132812 626.082031 193.859375 C 625.671875 193.585938 625.292969 193.277344 624.945312 192.929688 C 624.597656 192.578125 624.285156 192.203125 624.011719 191.792969 C 623.738281 191.382812 623.507812 190.949219 623.316406 190.496094 C 623.128906 190.042969 622.988281 189.574219 622.890625 189.089844 C 622.796875 188.605469 622.746094 188.121094 622.746094 187.628906 C 622.746094 187.136719 622.796875 186.648438 622.890625 186.164062 C 622.988281 185.683594 623.128906 185.214844 623.316406 184.757812 C 623.507812 184.304688 623.738281 183.871094 624.011719 183.460938 C 624.285156 183.054688 624.59375 182.675781 624.945312 182.328125 C 625.292969 181.976562 625.671875 181.667969 626.082031 181.394531 C 626.492188 181.121094 626.921875 180.890625 627.378906 180.703125 C 627.832031 180.511719 628.300781 180.371094 628.785156 180.273438 C 629.269531 180.179688 629.757812 180.128906 630.25 180.128906 C 630.742188 180.128906 631.230469 180.179688 631.710938 180.273438 C 632.195312 180.371094 632.664062 180.511719 633.117188 180.703125 C 633.574219 180.890625 634.007812 181.121094 634.414062 181.394531 C 634.824219 181.667969 635.203125 181.976562 635.550781 182.328125 C 635.902344 182.675781 636.210938 183.054688 636.484375 183.460938 C 636.757812 183.871094 636.988281 184.304688 637.179688 184.757812 C 637.367188 185.214844 637.507812 185.683594 637.605469 186.164062 C 637.703125 186.648438 637.75 187.136719 637.75 187.628906 Z M 637.75 187.628906 " fill-opacity="1" fill-rule="nonzero"/></g></g></g><g clip-path="url(#5a3aa35fe0)"><path fill="#ffffff" d="M 744.230469 271.636719 L 751.214844 271.636719 L 751.214844 264.648438 L 752.359375 264.648438 L 752.359375 271.636719 L 759.371094 271.636719 L 759.371094 272.78125 L 752.359375 272.78125 L 752.359375 279.789062 L 751.214844 279.789062 L 751.214844 272.78125 L 744.230469 272.78125 Z M 744.230469 271.636719 " fill-opacity="1" fill-rule="evenodd"/></g><g clip-path="url(#b73b1aa62a)"><path fill="#ffffff" d="M 744.230469 336.589844 L 751.214844 336.589844 L 751.214844 329.605469 L 752.359375 329.605469 L 752.359375 336.589844 L 759.371094 336.589844 L 759.371094 337.734375 L 752.359375 337.734375 L 752.359375 344.746094 L 751.214844 344.746094 L 751.214844 337.734375 L 744.230469 337.734375 Z M 744.230469 336.589844 " fill-opacity="1" fill-rule="evenodd"/></g><g clip-path="url(#51a27d5761)"><path fill="#ffffff" d="M 744.230469 401.546875 L 751.214844 401.546875 L 751.214844 394.558594 L 752.359375 394.558594 L 752.359375 401.546875 L 759.371094 401.546875 L 759.371094 402.6875 L 752.359375 402.6875 L 752.359375 409.699219 L 751.214844 409.699219 L 751.214844 402.6875 L 744.230469 402.6875 Z M 744.230469 401.546875 " fill-opacity="1" fill-rule="evenodd"/></g><g clip-path="url(#81e850023e)"><path fill="#ffffff" d="M 744.230469 466.5 L 751.214844 466.5 L 751.214844 459.515625 L 752.359375 459.515625 L 752.359375 466.5 L 759.371094 466.5 L 759.371094 467.644531 L 752.359375 467.644531 L 752.359375 474.65625 L 751.214844 474.65625 L 751.214844 467.644531 L 744.230469 467.644531 Z M 744.230469 466.5 " fill-opacity="1" fill-rule="evenodd"/></g><g clip-path="url(#52b2d3c076)"><path fill="#ffffff" d="M 744.230469 531.453125 L 751.214844 531.453125 L 751.214844 524.46875 L 752.359375 524.46875 L 752.359375 531.453125 L 759.371094 531.453125 L 759.371094 532.597656 L 752.359375 532.597656 L 752.359375 539.609375 L 751.214844 539.609375 L 751.214844 532.597656 L 744.230469 532.597656 Z M 744.230469 531.453125 " fill-opacity="1" fill-rule="evenodd"/></g><g clip-path="url(#5886ffaddd)"><path fill="#ffffff" d="M 744.230469 596.410156 L 751.214844 596.410156 L 751.214844 589.421875 L 752.359375 589.421875 L 752.359375 596.410156 L 759.371094 596.410156 L 759.371094 597.554688 L 752.359375 597.554688 L 752.359375 604.5625 L 751.214844 604.5625 L 751.214844 597.554688 L 744.230469 597.554688 Z M 744.230469 596.410156 " fill-opacity="1" fill-rule="evenodd"/></g></svg>