<svg xmlns="http://www.w3.org/2000/svg" xmlns:xlink="http://www.w3.org/1999/xlink" width="1080" zoomAndPan="magnify" viewBox="0 0 810 809.999993" height="1080" preserveAspectRatio="xMidYMid meet" version="1.0"><path fill="#cad8f1" d="M 281.019531 253.191406 C 278.480469 255.375 279.683594 254.339844 281.019531 253.191406 " fill-opacity="1" fill-rule="nonzero"/><path fill="#cad8f1" d="M 280.160156 236.226562 C 281.292969 237.542969 281.988281 239.078125 282.34375 240.667969 C 283.148438 244.253906 282.050781 248.144531 279.082031 250.703125 C 274.792969 254.394531 268.300781 253.910156 264.605469 249.625 C 260.914062 245.335938 261.394531 238.84375 265.683594 235.148438 C 265.234375 235.53125 264.804688 235.90625 264.589844 236.089844 C 264.757812 235.945312 265.085938 235.660156 265.683594 235.148438 C 266.421875 234.511719 266.761719 234.21875 266.867188 234.128906 C 266.714844 234.261719 266.203125 234.699219 265.683594 235.148438 C 268.949219 232.335938 273.492188 231.957031 277.105469 233.832031 C 278.234375 234.414062 279.277344 235.203125 280.160156 236.226562 Z M 263.625 232.761719 C 258.023438 237.589844 257.394531 246.078125 262.21875 251.679688 C 267.046875 257.28125 275.535156 257.914062 281.136719 253.085938 C 285.378906 249.433594 286.761719 243.683594 285.09375 238.671875 C 331.710938 205.40625 389.648438 193.207031 446.097656 205.203125 C 499.464844 216.546875 545.210938 247.992188 574.925781 293.75 C 604.640625 339.5 614.757812 394.085938 603.414062 447.449219 C 580 557.609375 471.332031 628.179688 361.167969 604.765625 C 277.128906 586.902344 214.324219 519.6875 201.679688 435.675781 C 205.648438 433.527344 208.207031 429.207031 207.867188 424.414062 C 207.394531 417.894531 201.726562 412.988281 195.203125 413.460938 C 188.683594 413.929688 183.777344 419.597656 184.25 426.117188 C 184.628906 431.335938 188.335938 435.515625 193.148438 436.738281 C 199.234375 476.710938 216.933594 514.96875 243.738281 545.515625 C 274.15625 580.179688 314.144531 603.582031 359.378906 613.195312 C 374.25 616.355469 389.210938 617.921875 404.0625 617.921875 C 444.757812 617.917969 484.628906 606.191406 519.566406 583.503906 C 567.25 552.539062 600.019531 504.855469 611.84375 449.242188 C 623.664062 393.628906 613.121094 336.738281 582.152344 289.054688 C 551.1875 241.371094 503.503906 208.597656 447.890625 196.777344 C 388.972656 184.253906 328.488281 197.023438 279.871094 231.8125 C 274.980469 228.523438 268.304688 228.734375 263.625 232.761719 " fill-opacity="1" fill-rule="nonzero"/><path fill="#cad8f1" d="M 281.207031 253.027344 L 281.136719 253.085938 L 281.019531 253.191406 Z M 281.207031 253.027344 " fill-opacity="1" fill-rule="nonzero"/><path fill="#cad8f1" d="M 281.207031 253.027344 C 281.796875 252.515625 282.351562 252.039062 282.601562 251.824219 C 282.410156 251.988281 281.992188 252.351562 281.207031 253.027344 " fill-opacity="1" fill-rule="nonzero"/><path fill="#cad8f1" d="M 414.875 147.8125 L 414.980469 147.8125 Z M 416.210938 171.996094 C 409.554688 171.851562 404.261719 166.316406 404.40625 159.660156 C 404.550781 153.003906 410.085938 147.707031 416.742188 147.851562 C 416.125 147.839844 415.511719 147.824219 415.152344 147.820312 C 415.445312 147.820312 415.945312 147.835938 416.742188 147.851562 C 422.113281 147.972656 426.589844 151.59375 428.046875 156.480469 C 428.398438 157.652344 428.578125 158.902344 428.550781 160.1875 C 428.511719 161.9375 428.09375 163.585938 427.390625 165.070312 C 425.414062 169.25 421.125 172.105469 416.210938 171.996094 Z M 431.957031 156.890625 C 430.5625 149.773438 424.367188 144.316406 416.824219 144.148438 C 408.125 143.957031 400.890625 150.878906 400.703125 159.578125 C 400.511719 168.273438 407.429688 175.503906 416.125 175.699219 C 415.960938 175.695312 415.796875 175.691406 415.636719 175.6875 C 415.804688 175.691406 415.941406 175.695312 416.132812 175.699219 C 417.160156 175.726562 417.8125 175.738281 418.199219 175.746094 C 417.726562 175.734375 416.933594 175.71875 416.140625 175.699219 C 422.996094 175.847656 428.925781 171.5625 431.226562 165.480469 C 498.296875 173.164062 558.675781 208.210938 598.664062 263.253906 C 636.507812 315.339844 651.804688 379.050781 641.734375 442.644531 C 631.660156 506.234375 597.429688 562.101562 545.335938 599.945312 C 437.808594 678.070312 286.765625 654.152344 208.644531 546.621094 C 149.09375 464.65625 147.046875 356.214844 202.160156 272.574219 C 207.519531 274.203125 213.558594 272.496094 217.199219 267.808594 C 221.921875 261.738281 220.828125 252.988281 214.757812 248.265625 C 208.683594 243.542969 199.933594 244.636719 195.210938 250.707031 C 191.257812 255.792969 191.398438 262.753906 195.109375 267.65625 C 169.136719 307.230469 154.597656 354.367188 153.992188 401.9375 C 153.304688 456.023438 169.792969 507.804688 201.671875 551.683594 C 240.867188 605.636719 298.730469 641.09375 364.597656 651.527344 C 377.828125 653.621094 391.046875 654.65625 404.1875 654.65625 C 456.472656 654.652344 507.285156 638.242188 550.402344 606.917969 C 604.355469 567.722656 639.8125 509.859375 650.242188 443.992188 C 660.675781 378.125 644.835938 312.140625 605.636719 258.1875 C 564.164062 201.109375 501.53125 164.789062 431.957031 156.890625 " fill-opacity="1" fill-rule="nonzero"/><path fill="#cad8f1" d="M 413.933594 175.652344 C 414.03125 175.652344 414.140625 175.65625 414.277344 175.660156 C 414.136719 175.65625 414.023438 175.652344 413.933594 175.652344 " fill-opacity="1" fill-rule="nonzero"/><path fill="#cad8f1" d="M 413.933594 175.652344 C 413.570312 175.644531 413.496094 175.644531 413.933594 175.652344 " fill-opacity="1" fill-rule="nonzero"/><path fill="#cad8f1" d="M 415.636719 175.6875 C 415.070312 175.675781 414.601562 175.667969 414.296875 175.660156 C 414.65625 175.667969 415.136719 175.679688 415.636719 175.6875 " fill-opacity="1" fill-rule="nonzero"/><path fill="#cad8f1" d="M 618.144531 210.527344 C 616.929688 211.816406 615.523438 212.816406 614.011719 213.550781 C 608.859375 216.050781 602.476562 215.292969 598.0625 211.140625 C 592.359375 205.769531 592.082031 196.761719 597.449219 191.058594 C 602.820312 185.351562 611.828125 185.074219 617.53125 190.445312 L 617.683594 190.585938 L 617.535156 190.445312 C 622.339844 194.96875 623.273438 202.0625 620.25 207.601562 C 619.679688 208.640625 618.992188 209.628906 618.144531 210.527344 Z M 620.519531 187.269531 C 613.0625 180.257812 601.292969 180.613281 594.277344 188.070312 C 587.265625 195.523438 587.621094 207.289062 595.070312 214.304688 C 594.765625 214.023438 594.46875 213.738281 594.191406 213.476562 C 594.445312 213.71875 594.726562 213.984375 595.078125 214.3125 C 595.296875 214.519531 595.46875 214.679688 595.648438 214.851562 C 595.460938 214.675781 595.277344 214.5 595.085938 214.320312 C 601.164062 220.035156 610.117188 220.84375 617.011719 216.902344 C 669.65625 276.566406 694.878906 354.875 686.496094 434.632812 C 671.164062 580.507812 547.484375 689.269531 403.925781 689.265625 C 394.035156 689.265625 384.039062 688.75 373.988281 687.695312 C 298.453125 679.753906 230.53125 642.875 182.734375 583.851562 C 134.933594 524.828125 112.984375 450.722656 120.921875 375.183594 C 133.40625 256.402344 217.089844 159.722656 331.324219 129.84375 C 334.582031 135.929688 341.480469 139.519531 348.644531 138.242188 C 357.550781 136.648438 363.484375 128.136719 361.890625 119.230469 C 360.300781 110.320312 351.789062 104.386719 342.878906 105.980469 C 335.148438 107.363281 329.664062 113.960938 329.390625 121.503906 C 305.0625 127.882812 281.648438 137.335938 259.613281 149.808594 C 233.046875 164.84375 209.074219 183.839844 188.351562 206.269531 C 145.28125 252.886719 119.003906 310.988281 112.351562 374.285156 C 104.171875 452.109375 126.789062 528.460938 176.035156 589.277344 C 225.28125 650.085938 295.261719 688.085938 373.085938 696.261719 C 383.515625 697.359375 393.917969 697.90625 404.265625 697.90625 C 471.097656 697.902344 535.414062 675.226562 588.074219 632.578125 C 648.890625 583.335938 686.886719 513.355469 695.070312 435.527344 C 703.710938 353.261719 677.660156 272.480469 623.289062 210.992188 C 628.15625 203.597656 627.179688 193.539062 620.519531 187.269531 " fill-opacity="1" fill-rule="nonzero"/><path fill="#cad8f1" d="M 593.367188 212.703125 C 592.722656 212.097656 592.859375 212.230469 593.367188 212.703125 " fill-opacity="1" fill-rule="nonzero"/><path fill="#cad8f1" d="M 595.648438 214.851562 C 596.351562 215.511719 596.972656 216.09375 597.164062 216.273438 C 597.015625 216.136719 596.542969 215.691406 595.648438 214.851562 " fill-opacity="1" fill-rule="nonzero"/><path fill="#cad8f1" d="M 721.128906 388.9375 C 720.136719 376.9375 722.125 400.9375 721.128906 388.9375 " fill-opacity="1" fill-rule="nonzero"/><path fill="#cad8f1" d="M 747.664062 403.148438 C 746.582031 403.46875 745.449219 403.6875 744.277344 403.785156 C 742.476562 403.9375 740.722656 403.785156 739.050781 403.390625 C 732.207031 401.761719 726.851562 395.902344 726.238281 388.511719 C 725.480469 379.328125 732.328125 371.238281 741.511719 370.476562 C 750.703125 369.714844 758.789062 376.5625 759.554688 385.75 C 760.214844 393.769531 755.085938 400.941406 747.664062 403.148438 Z M 741.089844 365.367188 C 729.089844 366.363281 720.136719 376.9375 721.128906 388.9375 C 721.964844 399 729.535156 406.886719 739.027344 408.601562 C 738.054688 502.375 698.371094 590.847656 628.132812 654.089844 C 566.042969 709.996094 487.113281 740.222656 404.1875 740.222656 C 398.226562 740.222656 392.230469 740.066406 386.234375 739.75 C 296.796875 735.0625 214.542969 695.828125 154.617188 629.277344 C 94.691406 562.722656 64.269531 476.816406 68.957031 387.378906 C 73.644531 297.941406 112.878906 215.691406 179.433594 155.761719 C 284.058594 61.558594 433.589844 42.847656 557.234375 106.707031 C 554.894531 114.792969 558.0625 123.769531 565.5625 128.433594 C 574.601562 134.054688 586.488281 131.28125 592.109375 122.242188 C 597.730469 113.199219 594.957031 101.3125 585.917969 95.691406 C 577.859375 90.679688 567.546875 92.355469 561.417969 99.179688 C 535.234375 85.679688 507.410156 75.621094 478.457031 69.203125 C 443.46875 61.453125 407.628906 59.195312 371.9375 62.480469 C 297.75 69.324219 229.191406 99.367188 173.664062 149.359375 C 139.167969 180.421875 111.78125 217.316406 92.269531 259.015625 C 73.429688 299.289062 62.691406 342.328125 60.351562 386.925781 C 58.015625 431.53125 64.199219 475.453125 78.726562 517.476562 C 93.773438 560.984375 117.148438 600.542969 148.214844 635.042969 C 179.277344 669.542969 216.171875 696.925781 257.871094 716.4375 C 298.144531 735.28125 341.183594 746.015625 385.78125 748.355469 C 391.914062 748.675781 398.023438 748.835938 404.125 748.835938 C 442.417969 748.835938 480.082031 742.515625 516.332031 729.984375 C 559.84375 714.9375 599.394531 691.558594 633.894531 660.492188 C 706.011719 595.558594 746.726562 504.707031 747.648438 408.425781 C 758.128906 406.089844 765.574219 396.316406 764.660156 385.328125 C 763.667969 373.324219 753.089844 364.371094 741.089844 365.367188 " fill-opacity="1" fill-rule="nonzero"/><path fill="#cad8f1" d="M 691.441406 644.035156 C 691.609375 643.8125 692.308594 642.890625 693.871094 640.84375 C 700.375 632.292969 692.089844 643.183594 691.441406 644.035156 " fill-opacity="1" fill-rule="nonzero"/><path fill="#cad8f1" d="M 698.667969 644.496094 C 705.238281 635.859375 717.59375 634.183594 726.222656 640.746094 C 734.855469 647.3125 736.535156 659.671875 729.96875 668.300781 C 724.078125 676.046875 713.523438 678.171875 705.179688 673.78125 C 704.230469 673.28125 703.300781 672.71875 702.417969 672.046875 C 700.941406 670.925781 699.6875 669.625 698.625 668.210938 C 693.46875 661.355469 693.226562 651.648438 698.667969 644.496094 Z M 728.769531 669.878906 C 729.019531 669.550781 729.3125 669.164062 729.621094 668.757812 C 729.273438 669.21875 728.992188 669.589844 728.769531 669.878906 Z M 806.5 278.019531 C 803.324219 267.035156 792.566406 260.328125 781.5625 261.886719 C 769.328125 229.59375 752.972656 199.007812 732.785156 170.707031 C 708.339844 136.453125 678.84375 106.320312 645.109375 81.148438 C 610.988281 55.683594 573.316406 35.890625 533.144531 22.320312 C 491.597656 8.289062 448.089844 1.171875 403.828125 1.171875 C 349.316406 1.171875 296.429688 11.847656 246.640625 32.910156 C 198.554688 53.25 155.363281 82.363281 118.28125 119.453125 C 81.191406 156.535156 52.078125 199.722656 31.738281 247.808594 C 10.679688 297.601562 0 350.484375 0 405 C 0 459.515625 10.679688 512.402344 31.738281 562.1875 C 52.078125 610.277344 81.191406 653.464844 118.28125 690.550781 C 155.363281 727.636719 198.554688 756.753906 246.640625 777.09375 C 296.429688 798.152344 349.316406 808.828125 403.828125 808.828125 C 466.019531 808.828125 525.664062 795.070312 581.113281 767.933594 C 625.984375 745.976562 666.972656 715.265625 700.996094 678.363281 C 712.089844 685.101562 726.75 682.503906 734.773438 671.953125 C 743.347656 660.675781 741.152344 644.523438 729.875 635.945312 C 718.601562 627.371094 702.445312 629.566406 693.871094 640.84375 C 686.519531 650.507812 687.105469 663.742188 694.515625 672.726562 C 619.710938 754.042969 515.199219 800.210938 403.828125 800.210938 C 185.910156 800.210938 8.617188 622.921875 8.617188 405 C 8.617188 187.082031 185.910156 9.789062 403.828125 9.789062 C 569.730469 9.789062 715.441406 111.289062 773.417969 264.679688 C 764.570312 269.761719 759.96875 280.382812 762.929688 290.621094 C 766.410156 302.648438 778.984375 309.585938 791.015625 306.105469 C 803.046875 302.628906 809.980469 290.050781 806.5 278.019531 " fill-opacity="1" fill-rule="nonzero"/></svg>