<svg xmlns="http://www.w3.org/2000/svg" xmlns:xlink="http://www.w3.org/1999/xlink" width="1080" zoomAndPan="magnify" viewBox="0 0 810 809.999993" height="1080" preserveAspectRatio="xMidYMid meet" version="1.0"><defs><clipPath id="08c9acf37e"><path d="M 0 15.304688 L 795 15.304688 L 795 810 L 0 810 Z M 0 15.304688 " clip-rule="nonzero"/></clipPath></defs><g clip-path="url(#08c9acf37e)"><path fill="#b48400" d="M 794.683594 412.648438 C 794.683594 419.152344 794.523438 425.648438 794.203125 432.144531 C 793.886719 438.640625 793.40625 445.121094 792.769531 451.59375 C 792.132812 458.066406 791.335938 464.519531 790.382812 470.949219 C 789.429688 477.382812 788.316406 483.789062 787.046875 490.164062 C 785.78125 496.542969 784.355469 502.886719 782.777344 509.195312 C 781.195312 515.5 779.460938 521.765625 777.574219 527.988281 C 775.6875 534.210938 773.648438 540.386719 771.457031 546.507812 C 769.265625 552.628906 766.925781 558.695312 764.4375 564.703125 C 761.949219 570.710938 759.316406 576.65625 756.535156 582.535156 C 753.753906 588.410156 750.832031 594.21875 747.765625 599.953125 C 744.699219 605.6875 741.496094 611.34375 738.152344 616.921875 C 734.808594 622.5 731.332031 627.992188 727.71875 633.398438 C 724.105469 638.804688 720.363281 644.121094 716.488281 649.34375 C 712.617188 654.566406 708.617188 659.691406 704.492188 664.71875 C 700.367188 669.746094 696.121094 674.667969 691.753906 679.484375 C 687.386719 684.304688 682.902344 689.011719 678.304688 693.609375 C 673.707031 698.210938 669 702.691406 664.179688 707.058594 C 659.363281 711.425781 654.4375 715.671875 649.414062 719.796875 C 644.386719 723.921875 639.261719 727.921875 634.039062 731.796875 C 628.816406 735.667969 623.5 739.414062 618.09375 743.027344 C 612.6875 746.636719 607.195312 750.117188 601.617188 753.460938 C 596.039062 756.800781 590.382812 760.007812 584.648438 763.070312 C 578.914062 766.136719 573.105469 769.058594 567.226562 771.839844 C 561.347656 774.621094 555.40625 777.253906 549.398438 779.742188 C 543.390625 782.230469 537.324219 784.570312 531.203125 786.761719 C 525.078125 788.953125 518.90625 790.992188 512.683594 792.878906 C 506.460938 794.769531 500.195312 796.5 493.886719 798.082031 C 487.578125 799.660156 481.238281 801.085938 474.859375 802.355469 C 468.480469 803.625 462.078125 804.734375 455.644531 805.6875 C 449.210938 806.644531 442.757812 807.4375 436.289062 808.078125 C 429.816406 808.714844 423.332031 809.191406 416.839844 809.511719 C 410.34375 809.832031 403.84375 809.988281 397.339844 809.988281 C 390.839844 809.988281 384.339844 809.832031 377.84375 809.511719 C 371.351562 809.191406 364.867188 808.714844 358.394531 808.078125 C 351.925781 807.4375 345.472656 806.644531 339.039062 805.6875 C 332.605469 804.734375 326.203125 803.625 319.824219 802.355469 C 313.445312 801.085938 307.101562 799.660156 300.796875 798.082031 C 294.488281 796.5 288.222656 794.769531 282 792.878906 C 275.777344 790.992188 269.605469 788.953125 263.480469 786.761719 C 257.359375 784.570312 251.292969 782.230469 245.285156 779.742188 C 239.277344 777.253906 233.335938 774.621094 227.457031 771.839844 C 221.578125 769.058594 215.769531 766.136719 210.035156 763.070312 C 204.300781 760.007812 198.644531 756.800781 193.066406 753.460938 C 187.488281 750.117188 181.996094 746.636719 176.589844 743.027344 C 171.183594 739.414062 165.867188 735.667969 160.644531 731.796875 C 155.421875 727.921875 150.296875 723.921875 145.269531 719.796875 C 140.242188 715.671875 135.320312 711.425781 130.503906 707.058594 C 125.683594 702.691406 120.976562 698.210938 116.378906 693.609375 C 111.78125 689.011719 107.296875 684.304688 102.929688 679.484375 C 98.5625 674.667969 94.316406 669.746094 90.191406 664.71875 C 86.066406 659.691406 82.066406 654.566406 78.195312 649.34375 C 74.320312 644.121094 70.578125 638.804688 66.964844 633.398438 C 63.351562 627.992188 59.875 622.5 56.53125 616.921875 C 53.1875 611.34375 49.984375 605.6875 46.917969 599.953125 C 43.851562 594.21875 40.929688 588.410156 38.148438 582.535156 C 35.367188 576.65625 32.734375 570.710938 30.246094 564.703125 C 27.757812 558.695312 25.417969 552.628906 23.226562 546.507812 C 21.035156 540.386719 18.996094 534.210938 17.109375 527.988281 C 15.222656 521.765625 13.488281 515.5 11.90625 509.195312 C 10.328125 502.886719 8.902344 496.542969 7.636719 490.164062 C 6.367188 483.789062 5.253906 477.382812 4.300781 470.949219 C 3.347656 464.519531 2.550781 458.066406 1.914062 451.59375 C 1.277344 445.121094 0.796875 438.640625 0.480469 432.144531 C 0.160156 425.648438 0 419.152344 0 412.648438 C 0 406.144531 0.160156 399.644531 0.480469 393.152344 C 0.796875 386.65625 1.277344 380.171875 1.914062 373.703125 C 2.550781 367.230469 3.347656 360.777344 4.300781 354.34375 C 5.253906 347.914062 6.367188 341.507812 7.636719 335.128906 C 8.902344 328.753906 10.328125 322.410156 11.90625 316.101562 C 13.488281 309.792969 15.222656 303.527344 17.109375 297.304688 C 18.996094 291.082031 21.035156 284.910156 23.226562 278.789062 C 25.417969 272.664062 27.757812 266.597656 30.246094 260.589844 C 32.734375 254.582031 35.367188 248.640625 38.148438 242.761719 C 40.929688 236.882812 43.851562 231.078125 46.917969 225.34375 C 49.984375 219.605469 53.1875 213.949219 56.53125 208.375 C 59.875 202.796875 63.351562 197.304688 66.964844 191.898438 C 70.578125 186.488281 74.320312 181.175781 78.195312 175.953125 C 82.066406 170.730469 86.066406 165.605469 90.191406 160.578125 C 94.316406 155.550781 98.5625 150.628906 102.929688 145.808594 C 107.296875 140.992188 111.78125 136.28125 116.378906 131.683594 C 120.976562 127.085938 125.683594 122.605469 130.503906 118.238281 C 135.320312 113.871094 140.242188 109.625 145.269531 105.5 C 150.296875 101.375 155.421875 97.375 160.644531 93.5 C 165.867188 89.625 171.183594 85.882812 176.589844 82.269531 C 181.996094 78.65625 187.488281 75.179688 193.066406 71.835938 C 198.644531 68.492188 204.300781 65.289062 210.035156 62.222656 C 215.769531 59.160156 221.578125 56.234375 227.457031 53.457031 C 233.335938 50.675781 239.277344 48.039062 245.285156 45.550781 C 251.292969 43.0625 257.359375 40.722656 263.480469 38.53125 C 269.605469 36.34375 275.777344 34.304688 282 32.414062 C 288.222656 30.527344 294.488281 28.792969 300.796875 27.214844 C 307.101562 25.632812 313.445312 24.210938 319.824219 22.941406 C 326.203125 21.671875 332.605469 20.5625 339.039062 19.605469 C 345.472656 18.652344 351.925781 17.855469 358.394531 17.21875 C 364.867188 16.582031 371.351562 16.105469 377.84375 15.785156 C 384.339844 15.464844 390.839844 15.304688 397.339844 15.304688 C 403.84375 15.304688 410.34375 15.464844 416.839844 15.785156 C 423.332031 16.105469 429.816406 16.582031 436.289062 17.21875 C 442.757812 17.855469 449.210938 18.652344 455.644531 19.605469 C 462.078125 20.5625 468.480469 21.671875 474.859375 22.941406 C 481.238281 24.210938 487.578125 25.632812 493.886719 27.214844 C 500.195312 28.792969 506.460938 30.527344 512.683594 32.414062 C 518.90625 34.304688 525.078125 36.34375 531.203125 38.53125 C 537.324219 40.722656 543.390625 43.0625 549.398438 45.550781 C 555.40625 48.039062 561.347656 50.675781 567.226562 53.457031 C 573.105469 56.234375 578.914062 59.160156 584.648438 62.222656 C 590.382812 65.289062 596.039062 68.492188 601.617188 71.835938 C 607.195312 75.179688 612.6875 78.65625 618.09375 82.269531 C 623.5 85.882812 628.816406 89.625 634.039062 93.5 C 639.261719 97.375 644.386719 101.375 649.414062 105.5 C 654.4375 109.625 659.363281 113.871094 664.179688 118.238281 C 669 122.605469 673.707031 127.085938 678.304688 131.683594 C 682.902344 136.28125 687.386719 140.992188 691.753906 145.808594 C 696.121094 150.628906 700.367188 155.550781 704.492188 160.578125 C 708.617188 165.605469 712.617188 170.730469 716.488281 175.953125 C 720.363281 181.175781 724.105469 186.488281 727.71875 191.898438 C 731.332031 197.304688 734.808594 202.796875 738.152344 208.375 C 741.496094 213.949219 744.699219 219.605469 747.765625 225.34375 C 750.832031 231.078125 753.753906 236.882812 756.535156 242.761719 C 759.316406 248.640625 761.949219 254.582031 764.4375 260.589844 C 766.925781 266.597656 769.265625 272.664062 771.457031 278.789062 C 773.648438 284.910156 775.6875 291.082031 777.574219 297.304688 C 779.460938 303.527344 781.195312 309.792969 782.777344 316.101562 C 784.355469 322.410156 785.78125 328.753906 787.046875 335.128906 C 788.316406 341.507812 789.429688 347.914062 790.382812 354.347656 C 791.335938 360.777344 792.132812 367.230469 792.769531 373.703125 C 793.40625 380.171875 793.886719 386.65625 794.203125 393.152344 C 794.523438 399.644531 794.683594 406.144531 794.683594 412.648438 Z M 794.683594 412.648438 " fill-opacity="1" fill-rule="nonzero"/></g><path fill="#ffffff" d="M 593.234375 515.285156 C 529.085938 460.710938 510.128906 486.753906 481.597656 517.585938 C 460.152344 539.03125 407.875 493.839844 362.683594 448.648438 C 317.683594 401.160156 272.492188 348.882812 293.746094 327.433594 C 324.765625 296.605469 350.808594 277.457031 296.234375 211.007812 C 243.957031 144.5625 210.640625 196.839844 179.808594 225.371094 C 148.980469 258.691406 179.808594 384.5 301.023438 510.5 C 424.535156 636.5 548.042969 667.328125 581.363281 634.011719 C 609.894531 605.667969 659.683594 570.050781 593.234375 515.285156 Z M 593.234375 515.285156 " fill-opacity="1" fill-rule="evenodd"/></svg>