<svg xmlns="http://www.w3.org/2000/svg" xmlns:xlink="http://www.w3.org/1999/xlink" width="1080" zoomAndPan="magnify" viewBox="0 0 810 809.999993" height="1080" preserveAspectRatio="xMidYMid meet" version="1.0"><defs><filter x="0%" y="0%" width="100%" height="100%" id="67b1d56eb7"><feColorMatrix values="0 0 0 0 1 0 0 0 0 1 0 0 0 0 1 0 0 0 1 0" color-interpolation-filters="sRGB"/></filter><mask id="b6c0b0b103"><g filter="url(#67b1d56eb7)"><rect x="-81" width="972" fill="#000000" y="-80.999999" height="971.999992" fill-opacity="0.35"/></g></mask><clipPath id="6159694ba0"><path d="M 19 86 L 780 86 L 780 651 L 19 651 Z M 19 86 " clip-rule="nonzero"/></clipPath><clipPath id="448c5112ac"><path d="M 332.210938 -201.933594 L 959.019531 306.355469 L 445.535156 939.574219 L -181.277344 431.28125 Z M 332.210938 -201.933594 " clip-rule="nonzero"/></clipPath><clipPath id="cadd43473a"><path d="M 332.210938 -201.933594 L 959.019531 306.355469 L 445.535156 939.574219 L -181.277344 431.28125 Z M 332.210938 -201.933594 " clip-rule="nonzero"/></clipPath><clipPath id="77f330475d"><path d="M 331.703125 -287.621094 L 1058.691406 301.902344 L 469.167969 1028.890625 L -257.820312 439.367188 Z M 331.703125 -287.621094 " clip-rule="nonzero"/></clipPath><clipPath id="365ae1fce9"><path d="M 332.015625 -287.140625 L 1058.15625 301.695312 L 469.320312 1027.835938 L -256.820312 439 Z M 332.015625 -287.140625 " clip-rule="nonzero"/></clipPath><clipPath id="f10317040c"><path d="M 90 82 L 780 82 L 780 648 L 90 648 Z M 90 82 " clip-rule="nonzero"/></clipPath><clipPath id="2f99df84ce"><path d="M 332.210938 -201.933594 L 959.019531 306.355469 L 445.535156 939.574219 L -181.277344 431.28125 Z M 332.210938 -201.933594 " clip-rule="nonzero"/></clipPath><clipPath id="78afd2a5c7"><path d="M 332.210938 -201.933594 L 959.019531 306.355469 L 445.535156 939.574219 L -181.277344 431.28125 Z M 332.210938 -201.933594 " clip-rule="nonzero"/></clipPath><clipPath id="4eaf52b40c"><path d="M 331.703125 -287.621094 L 1058.691406 301.902344 L 469.167969 1028.890625 L -257.820312 439.367188 Z M 331.703125 -287.621094 " clip-rule="nonzero"/></clipPath><clipPath id="f86b0a5e1f"><path d="M 332.015625 -287.140625 L 1058.15625 301.695312 L 469.320312 1027.835938 L -256.820312 439 Z M 332.015625 -287.140625 " clip-rule="nonzero"/></clipPath><clipPath id="858266edec"><path d="M 137 80 L 780 80 L 780 645 L 137 645 Z M 137 80 " clip-rule="nonzero"/></clipPath><clipPath id="c93b1b6c1a"><path d="M 332.210938 -201.933594 L 959.019531 306.355469 L 445.535156 939.574219 L -181.277344 431.28125 Z M 332.210938 -201.933594 " clip-rule="nonzero"/></clipPath><clipPath id="64fafaee15"><path d="M 332.210938 -201.933594 L 959.019531 306.355469 L 445.535156 939.574219 L -181.277344 431.28125 Z M 332.210938 -201.933594 " clip-rule="nonzero"/></clipPath><clipPath id="5b1bf90221"><path d="M 331.703125 -287.621094 L 1058.691406 301.902344 L 469.167969 1028.890625 L -257.820312 439.367188 Z M 331.703125 -287.621094 " clip-rule="nonzero"/></clipPath><clipPath id="40415579db"><path d="M 332.015625 -287.140625 L 1058.15625 301.695312 L 469.320312 1027.835938 L -256.820312 439 Z M 332.015625 -287.140625 " clip-rule="nonzero"/></clipPath><clipPath id="4f2a4c33f7"><path d="M 181 78 L 780 78 L 780 643 L 181 643 Z M 181 78 " clip-rule="nonzero"/></clipPath><clipPath id="ff94cf045f"><path d="M 332.210938 -201.933594 L 959.019531 306.355469 L 445.535156 939.574219 L -181.277344 431.28125 Z M 332.210938 -201.933594 " clip-rule="nonzero"/></clipPath><clipPath id="f7ad93d28e"><path d="M 332.210938 -201.933594 L 959.019531 306.355469 L 445.535156 939.574219 L -181.277344 431.28125 Z M 332.210938 -201.933594 " clip-rule="nonzero"/></clipPath><clipPath id="6221c50f03"><path d="M 331.703125 -287.621094 L 1058.691406 301.902344 L 469.167969 1028.890625 L -257.820312 439.367188 Z M 331.703125 -287.621094 " clip-rule="nonzero"/></clipPath><clipPath id="f3297932b6"><path d="M 332.015625 -287.140625 L 1058.15625 301.695312 L 469.320312 1027.835938 L -256.820312 439 Z M 332.015625 -287.140625 " clip-rule="nonzero"/></clipPath><clipPath id="f42b5287ef"><path d="M 221 76 L 780 76 L 780 641 L 221 641 Z M 221 76 " clip-rule="nonzero"/></clipPath><clipPath id="ce5760c7a0"><path d="M 332.210938 -201.933594 L 959.019531 306.355469 L 445.535156 939.574219 L -181.277344 431.28125 Z M 332.210938 -201.933594 " clip-rule="nonzero"/></clipPath><clipPath id="04da2549c1"><path d="M 332.210938 -201.933594 L 959.019531 306.355469 L 445.535156 939.574219 L -181.277344 431.28125 Z M 332.210938 -201.933594 " clip-rule="nonzero"/></clipPath><clipPath id="e337902bdf"><path d="M 331.703125 -287.621094 L 1058.691406 301.902344 L 469.167969 1028.890625 L -257.820312 439.367188 Z M 331.703125 -287.621094 " clip-rule="nonzero"/></clipPath><clipPath id="b35bf689bc"><path d="M 332.015625 -287.140625 L 1058.15625 301.695312 L 469.320312 1027.835938 L -256.820312 439 Z M 332.015625 -287.140625 " clip-rule="nonzero"/></clipPath><clipPath id="198cccc593"><path d="M 274 74 L 780 74 L 780 638 L 274 638 Z M 274 74 " clip-rule="nonzero"/></clipPath><clipPath id="66b1113c9d"><path d="M 332.210938 -201.933594 L 959.019531 306.355469 L 445.535156 939.574219 L -181.277344 431.28125 Z M 332.210938 -201.933594 " clip-rule="nonzero"/></clipPath><clipPath id="4565a9355c"><path d="M 332.210938 -201.933594 L 959.019531 306.355469 L 445.535156 939.574219 L -181.277344 431.28125 Z M 332.210938 -201.933594 " clip-rule="nonzero"/></clipPath><clipPath id="29b308cf14"><path d="M 331.703125 -287.621094 L 1058.691406 301.902344 L 469.167969 1028.890625 L -257.820312 439.367188 Z M 331.703125 -287.621094 " clip-rule="nonzero"/></clipPath><clipPath id="ac15f851d5"><path d="M 332.015625 -287.140625 L 1058.15625 301.695312 L 469.320312 1027.835938 L -256.820312 439 Z M 332.015625 -287.140625 " clip-rule="nonzero"/></clipPath><clipPath id="79cbd111ec"><path d="M 321 71 L 780 71 L 780 636 L 321 636 Z M 321 71 " clip-rule="nonzero"/></clipPath><clipPath id="1efdcf3ffd"><path d="M 332.210938 -201.933594 L 959.019531 306.355469 L 445.535156 939.574219 L -181.277344 431.28125 Z M 332.210938 -201.933594 " clip-rule="nonzero"/></clipPath><clipPath id="e10bd38350"><path d="M 332.210938 -201.933594 L 959.019531 306.355469 L 445.535156 939.574219 L -181.277344 431.28125 Z M 332.210938 -201.933594 " clip-rule="nonzero"/></clipPath><clipPath id="d51049dce4"><path d="M 331.703125 -287.621094 L 1058.691406 301.902344 L 469.167969 1028.890625 L -257.820312 439.367188 Z M 331.703125 -287.621094 " clip-rule="nonzero"/></clipPath><clipPath id="2918624fa5"><path d="M 332.015625 -287.140625 L 1058.15625 301.695312 L 469.320312 1027.835938 L -256.820312 439 Z M 332.015625 -287.140625 " clip-rule="nonzero"/></clipPath><clipPath id="8009a7b9fa"><path d="M 383 68 L 780 68 L 780 633 L 383 633 Z M 383 68 " clip-rule="nonzero"/></clipPath><clipPath id="69e7a75ba1"><path d="M 332.210938 -201.933594 L 959.019531 306.355469 L 445.535156 939.574219 L -181.277344 431.28125 Z M 332.210938 -201.933594 " clip-rule="nonzero"/></clipPath><clipPath id="105a220633"><path d="M 332.210938 -201.933594 L 959.019531 306.355469 L 445.535156 939.574219 L -181.277344 431.28125 Z M 332.210938 -201.933594 " clip-rule="nonzero"/></clipPath><clipPath id="4d935858ca"><path d="M 331.703125 -287.621094 L 1058.691406 301.902344 L 469.167969 1028.890625 L -257.820312 439.367188 Z M 331.703125 -287.621094 " clip-rule="nonzero"/></clipPath><clipPath id="5b06d3e6a7"><path d="M 332.015625 -287.140625 L 1058.15625 301.695312 L 469.320312 1027.835938 L -256.820312 439 Z M 332.015625 -287.140625 " clip-rule="nonzero"/></clipPath><clipPath id="045317305a"><rect x="0" width="810" y="0" height="785"/></clipPath></defs><g mask="url(#b6c0b0b103)"><g transform="matrix(1, 0, 0, 1, 0, 0.000000000000039746)"><g clip-path="url(#045317305a)"><g clip-path="url(#6159694ba0)"><g clip-path="url(#448c5112ac)"><g clip-path="url(#cadd43473a)"><g clip-path="url(#77f330475d)"><g clip-path="url(#365ae1fce9)"><path fill="#ffffff" d="M 404.007812 640.089844 C 414.410156 646.316406 428.222656 649.21875 447.230469 647.234375 C 485.351562 643.253906 534.480469 618.660156 583.355469 584.441406 C 632.132812 550.296875 680.261719 506.851562 716.339844 465.679688 C 734.378906 445.09375 749.355469 425.128906 759.886719 407.230469 C 770.46875 389.25 776.375 373.671875 776.6875 361.777344 C 776.84375 355.890625 775.628906 351.054688 773.085938 347.253906 C 770.550781 343.464844 766.527344 340.441406 760.585938 338.464844 C 748.539062 334.457031 729.0625 334.921875 700.324219 341.878906 C 641.96875 356.007812 602.441406 346.191406 573.777344 323.238281 C 545.332031 300.449219 528.035156 265.035156 513.3125 229.003906 C 509.996094 220.890625 506.816406 212.761719 503.671875 204.71875 C 492.730469 176.75 482.226562 149.894531 468.101562 128.988281 C 459.0625 115.609375 448.664062 104.871094 435.917969 97.949219 C 423.203125 91.046875 407.960938 87.835938 389.027344 89.8125 C 350.785156 93.804688 296.175781 117.074219 240.5 149.539062 C 184.917969 181.945312 128.664062 223.285156 87.199219 263.027344 C 66.460938 282.90625 49.503906 302.308594 38.167969 319.929688 C 26.769531 337.652344 21.363281 353.109375 22.929688 365.25 C 24.445312 376.972656 32.609375 386.433594 50.695312 392.046875 C 68.917969 397.695312 96.730469 399.238281 136.308594 395.105469 C 216.09375 386.773438 266.324219 399.394531 299.003906 423.320312 C 331.679688 447.246094 346.261719 482.089844 355.613281 516.902344 C 358.917969 529.203125 361.59375 541.613281 364.167969 553.554688 C 365.230469 558.476562 366.273438 563.320312 367.339844 568.042969 C 371.007812 584.316406 374.917969 599.21875 380.59375 611.664062 C 386.261719 624.078125 393.597656 633.855469 404.007812 640.089844 Z M 361.386719 554.078125 C 373.351562 609.574219 383.523438 656.734375 447.527344 650.050781 C 603.007812 633.816406 930.511719 283.246094 699.65625 339.128906 C 571.421875 370.171875 537.6875 283.921875 506.386719 203.886719 C 481.339844 139.84375 457.851562 79.78125 388.734375 86.996094 C 233.25 103.230469 -181.054688 431.085938 136.601562 397.917969 C 323.5 378.40625 344.28125 474.753906 361.386719 554.078125 Z M 361.386719 554.078125 " fill-opacity="1" fill-rule="evenodd"/></g></g></g></g></g><g clip-path="url(#f10317040c)"><g clip-path="url(#2f99df84ce)"><g clip-path="url(#78afd2a5c7)"><g clip-path="url(#4eaf52b40c)"><g clip-path="url(#f86b0a5e1f)"><path fill="#ffffff" d="M 441.878906 636.21875 C 451.304688 642.496094 463.757812 645.511719 480.882812 643.722656 C 515.277344 640.128906 559.519531 616.109375 603.523438 582.398438 C 647.414062 548.777344 690.636719 505.855469 722.953125 465.085938 C 739.113281 444.703125 752.5 424.910156 761.882812 407.132812 C 771.300781 389.285156 776.523438 373.75 776.695312 361.808594 C 776.777344 355.882812 775.617188 350.992188 773.253906 347.132812 C 770.90625 343.308594 767.246094 340.28125 761.914062 338.277344 C 751.078125 334.207031 733.539062 334.453125 707.566406 341.117188 C 654.613281 354.703125 618.515625 344.472656 592.234375 321.207031 C 566.207031 298.164062 550.179688 262.632812 536.484375 226.511719 C 533.402344 218.386719 530.441406 210.234375 527.511719 202.175781 C 517.3125 174.125 507.515625 147.171875 494.492188 126.128906 C 486.152344 112.660156 476.617188 101.847656 465.023438 94.832031 C 453.488281 87.851562 439.722656 84.519531 422.679688 86.300781 C 388.152344 89.902344 338.917969 112.566406 288.734375 144.453125 C 238.652344 176.277344 188.050781 217.011719 150.835938 256.296875 C 132.226562 275.945312 117.039062 295.15625 106.929688 312.640625 C 96.777344 330.214844 91.984375 345.648438 93.535156 357.886719 C 95.042969 369.757812 102.613281 379.238281 118.921875 384.964844 C 135.414062 390.757812 160.574219 392.570312 196.40625 388.828125 C 268.796875 381.269531 314.601562 394.386719 344.542969 418.664062 C 374.429688 442.890625 387.976562 477.820312 396.785156 512.644531 C 399.898438 524.960938 402.445312 537.375 404.898438 549.324219 C 405.90625 554.253906 406.902344 559.101562 407.914062 563.835938 C 411.398438 580.132812 415.09375 595.078125 420.375 607.589844 C 425.652344 620.082031 432.410156 629.914062 441.878906 636.21875 Z M 402.109375 549.824219 C 413.503906 605.378906 423.1875 652.59375 481.175781 646.535156 C 622.054688 631.828125 915.722656 284.789062 706.863281 338.375 C 590.84375 368.144531 559.410156 281.652344 530.242188 201.398438 C 506.898438 137.175781 485.007812 76.945312 422.386719 83.484375 C 281.507812 98.195312 -91.117188 421.699219 196.699219 391.644531 C 366.042969 373.964844 385.824219 470.417969 402.109375 549.824219 Z M 402.109375 549.824219 " fill-opacity="1" fill-rule="evenodd"/></g></g></g></g></g><g clip-path="url(#858266edec)"><g clip-path="url(#c93b1b6c1a)"><g clip-path="url(#64fafaee15)"><g clip-path="url(#5b1bf90221)"><g clip-path="url(#40415579db)"><path fill="#ffffff" d="M 467.058594 633.65625 C 475.84375 639.964844 487.390625 643.042969 503.253906 641.386719 C 535.164062 638.054688 576.15625 614.421875 616.929688 581.046875 C 657.578125 547.773438 697.542969 505.203125 727.363281 464.699219 C 742.273438 444.449219 754.609375 424.769531 763.222656 407.070312 C 771.867188 389.308594 776.640625 373.804688 776.714844 361.832031 C 776.75 355.882812 775.628906 350.949219 773.382812 347.050781 C 771.15625 343.191406 767.730469 340.164062 762.804688 338.148438 C 752.773438 334.042969 736.53125 334.140625 712.398438 340.609375 C 687.785156 347.207031 666.980469 347.921875 649.195312 343.992188 C 631.390625 340.0625 616.777344 331.511719 604.507812 319.851562 C 580.089844 296.640625 564.914062 261.035156 551.894531 224.855469 C 548.96875 216.71875 546.152344 208.558594 543.363281 200.484375 C 533.660156 172.378906 524.332031 145.355469 512.039062 124.226562 C 504.164062 110.691406 495.199219 99.828125 484.371094 92.75 C 473.609375 85.71875 460.832031 82.316406 445.050781 83.964844 C 413 87.308594 367.339844 109.558594 320.796875 141.070312 C 274.375 172.5 227.519531 212.832031 193.132812 251.8125 C 175.933594 271.308594 161.917969 290.390625 152.625 307.792969 C 143.292969 325.265625 138.917969 340.6875 140.457031 352.992188 C 141.957031 364.96875 149.132812 374.464844 164.269531 380.265625 C 179.613281 386.144531 203.007812 388.140625 236.34375 384.660156 C 303.832031 377.613281 346.699219 391.066406 374.816406 415.574219 C 402.839844 440 415.703125 474.980469 424.152344 509.8125 C 427.140625 522.140625 429.601562 534.554688 431.96875 546.511719 C 432.945312 551.445312 433.90625 556.300781 434.886719 561.039062 C 438.25 577.351562 441.800781 592.328125 446.820312 604.878906 C 451.835938 617.429688 458.210938 627.300781 467.058594 633.65625 Z M 429.179688 547 C 440.191406 602.59375 449.550781 649.839844 503.546875 644.203125 C 634.722656 630.503906 905.917969 285.8125 711.667969 337.875 C 603.765625 366.796875 573.855469 280.144531 546.101562 199.742188 C 523.894531 135.398438 503.066406 75.058594 444.757812 81.148438 C 313.582031 94.84375 -31.359375 415.457031 236.636719 387.472656 C 394.316406 371.011719 413.4375 467.535156 429.179688 547 Z M 429.179688 547 " fill-opacity="1" fill-rule="evenodd"/></g></g></g></g></g><g clip-path="url(#4f2a4c33f7)"><g clip-path="url(#ff94cf045f)"><g clip-path="url(#f7ad93d28e)"><g clip-path="url(#6221c50f03)"><g clip-path="url(#f3297932b6)"><path fill="#ffffff" d="M 490.734375 631.253906 C 498.917969 637.585938 509.613281 640.722656 524.28125 639.191406 C 538.988281 637.65625 555.847656 631.117188 573.84375 620.730469 C 591.804688 610.363281 610.730469 596.257812 629.527344 579.785156 C 667.125 546.84375 704.027344 504.597656 731.507812 464.34375 C 745.242188 444.21875 756.589844 424.640625 764.484375 407.015625 C 772.40625 389.332031 776.75 373.851562 776.734375 361.851562 C 776.714844 349.992188 772.503906 341.972656 763.632812 338.019531 C 754.367188 333.890625 739.347656 333.847656 716.945312 340.128906 C 694.023438 346.558594 674.589844 347.128906 657.929688 343.0625 C 641.253906 338.988281 627.554688 330.3125 616.046875 318.570312 C 593.140625 295.203125 578.761719 259.53125 566.382812 223.300781 C 563.597656 215.152344 560.917969 206.980469 558.265625 198.894531 C 549.027344 170.738281 540.140625 143.648438 528.535156 122.4375 C 521.09375 108.839844 512.667969 97.921875 502.554688 90.789062 C 492.511719 83.707031 480.664062 80.246094 466.078125 81.765625 C 451.300781 83.3125 433.3125 89.511719 413.539062 99.304688 C 393.796875 109.078125 372.4375 122.351562 350.945312 137.878906 C 307.957031 168.941406 264.625 208.894531 232.890625 247.59375 C 217.019531 266.941406 204.109375 285.90625 195.578125 303.230469 C 187.019531 320.613281 183.03125 336.023438 184.5625 348.390625 C 186.058594 360.472656 192.859375 369.988281 206.902344 375.851562 C 221.164062 381.808594 242.894531 383.976562 273.886719 380.738281 C 336.777344 374.171875 376.878906 387.953125 403.277344 412.679688 C 429.546875 437.285156 441.761719 472.308594 449.875 507.152344 C 452.746094 519.488281 455.125 531.902344 457.417969 543.867188 C 458.363281 548.804688 459.292969 553.667969 460.238281 558.414062 C 463.488281 574.738281 466.90625 589.742188 471.671875 602.335938 C 476.445312 614.9375 482.460938 624.851562 490.734375 631.253906 Z M 454.625 544.34375 C 465.28125 599.976562 474.335938 647.25 524.578125 642.007812 C 646.632812 629.261719 896.699219 286.773438 716.183594 337.402344 C 615.910156 365.527344 587.433594 278.726562 561.015625 198.183594 C 539.871094 133.730469 520.042969 73.285156 465.785156 78.953125 C 343.730469 91.695312 24.816406 409.589844 274.179688 383.554688 C 420.898438 368.234375 439.394531 464.824219 454.625 544.34375 Z M 454.625 544.34375 " fill-opacity="1" fill-rule="evenodd"/></g></g></g></g></g><g clip-path="url(#f42b5287ef)"><g clip-path="url(#ce5760c7a0)"><g clip-path="url(#04da2549c1)"><g clip-path="url(#e337902bdf)"><g clip-path="url(#b35bf689bc)"><path fill="#ffffff" d="M 512.398438 629.0625 C 520.039062 635.421875 529.957031 638.597656 543.519531 637.183594 C 557.140625 635.757812 572.765625 629.375 589.457031 619.132812 C 606.109375 608.910156 623.644531 594.960938 641.046875 578.640625 C 675.859375 545.996094 709.964844 504.054688 735.296875 464.023438 C 747.960938 444.011719 758.402344 424.527344 765.640625 406.96875 C 772.902344 389.359375 776.851562 373.898438 776.75 361.867188 C 776.648438 349.921875 772.613281 341.875 764.382812 337.894531 C 755.816406 333.753906 741.921875 333.578125 721.109375 339.6875 C 699.730469 345.964844 681.542969 346.40625 665.910156 342.203125 C 650.269531 338 637.410156 329.203125 626.597656 317.390625 C 605.082031 293.886719 591.429688 258.160156 579.636719 221.875 C 576.984375 213.71875 574.429688 205.535156 571.898438 197.441406 C 563.085938 169.238281 554.601562 142.085938 543.625 120.796875 C 536.585938 107.140625 528.648438 96.175781 519.179688 88.984375 C 509.800781 81.859375 498.800781 78.351562 485.320312 79.757812 C 471.617188 81.1875 454.9375 87.234375 436.582031 96.875 C 418.261719 106.492188 398.453125 119.59375 378.535156 134.953125 C 338.683594 165.675781 298.578125 205.285156 269.265625 243.722656 C 254.609375 262.941406 242.707031 281.800781 234.875 299.050781 C 227.019531 316.355469 223.394531 331.757812 224.914062 344.179688 C 226.40625 356.359375 232.863281 365.898438 245.917969 371.820312 C 259.1875 377.84375 279.394531 380.164062 308.234375 377.152344 C 366.925781 371.023438 404.496094 385.113281 429.3125 410.035156 C 453.976562 434.808594 465.605469 469.867188 473.410156 504.71875 C 476.171875 517.058594 478.476562 529.480469 480.699219 541.449219 C 481.617188 546.390625 482.515625 551.257812 483.433594 556.007812 C 486.578125 572.347656 489.875 587.375 494.414062 600.007812 C 498.957031 612.660156 504.648438 622.613281 512.398438 629.0625 Z M 477.90625 541.910156 C 488.230469 597.578125 497.007812 644.882812 543.816406 639.996094 C 657.527344 628.125 888.265625 287.65625 720.3125 336.972656 C 627.019531 364.367188 599.859375 277.429688 574.65625 196.757812 C 554.484375 132.207031 535.570312 71.664062 485.023438 76.945312 C 371.3125 88.816406 76.210938 404.226562 308.527344 379.96875 C 445.214844 365.695312 463.144531 462.34375 477.90625 541.910156 Z M 477.90625 541.910156 " fill-opacity="1" fill-rule="evenodd"/></g></g></g></g></g><g clip-path="url(#198cccc593)"><g clip-path="url(#66b1113c9d)"><g clip-path="url(#4565a9355c)"><g clip-path="url(#29b308cf14)"><g clip-path="url(#ac15f851d5)"><path fill="#ffffff" d="M 540.613281 626.21875 C 547.558594 632.613281 556.460938 635.832031 568.578125 634.566406 C 580.777344 633.292969 594.785156 627.117188 609.777344 617.0625 C 624.730469 607.035156 640.453125 593.285156 656.042969 577.160156 C 687.230469 544.910156 717.691406 503.355469 740.230469 463.617188 C 751.5 443.753906 760.761719 424.390625 767.148438 406.914062 C 773.546875 389.394531 776.984375 373.960938 776.773438 361.890625 C 776.5625 349.835938 772.765625 341.738281 765.347656 337.722656 C 757.695312 333.578125 745.273438 333.226562 726.539062 339.109375 C 707.164062 345.195312 690.597656 345.46875 676.292969 341.082031 C 662 336.699219 650.242188 327.746094 640.339844 315.84375 C 620.636719 292.167969 607.933594 256.375 596.898438 220.015625 C 594.421875 211.851562 592.027344 203.65625 589.65625 195.546875 C 581.398438 167.28125 573.441406 140.050781 563.28125 118.65625 C 556.765625 104.921875 549.460938 93.890625 540.832031 86.625 C 532.296875 79.4375 522.40625 75.886719 510.375 77.140625 C 498.085938 78.425781 483.109375 84.261719 466.601562 93.699219 C 450.136719 103.113281 432.347656 115.992188 414.472656 131.128906 C 378.710938 161.410156 342.796875 200.570312 316.640625 238.667969 C 303.566406 257.71875 292.972656 276.4375 286.050781 293.601562 C 279.109375 310.808594 275.957031 326.203125 277.46875 338.699219 C 278.953125 351.007812 284.953125 360.585938 296.734375 366.582031 C 308.71875 372.679688 326.933594 375.199219 352.964844 372.484375 C 406.210938 366.921875 440.480469 381.429688 463.226562 406.605469 C 485.792969 431.582031 496.652344 466.679688 504.058594 501.550781 C 506.683594 513.902344 508.890625 526.320312 511.019531 538.300781 C 511.898438 543.246094 512.761719 548.117188 513.640625 552.878906 C 516.648438 569.230469 519.785156 584.292969 524.027344 596.976562 C 528.277344 609.691406 533.542969 619.707031 540.613281 626.21875 Z M 508.222656 538.746094 C 518.121094 594.457031 526.535156 641.800781 568.871094 637.378906 C 671.714844 626.640625 877.28125 288.800781 725.691406 336.410156 C 641.488281 362.855469 616.035156 275.738281 592.417969 194.90625 C 573.519531 130.21875 555.796875 69.554688 510.082031 74.328125 C 407.234375 85.066406 143.144531 397.238281 353.257812 375.296875 C 476.882812 362.390625 494.070312 459.113281 508.222656 538.746094 Z M 508.222656 538.746094 " fill-opacity="1" fill-rule="evenodd"/></g></g></g></g></g><g clip-path="url(#79cbd111ec)"><g clip-path="url(#1efdcf3ffd)"><g clip-path="url(#e10bd38350)"><g clip-path="url(#d51049dce4)"><g clip-path="url(#2918624fa5)"><path fill="#ffffff" d="M 565.8125 623.695312 C 572.148438 630.128906 580.148438 633.359375 590.949219 632.230469 C 601.867188 631.089844 614.429688 625.113281 627.910156 615.226562 C 641.347656 605.371094 655.453125 591.808594 669.429688 575.855469 C 697.378906 543.953125 724.585938 502.746094 744.640625 463.265625 C 764.761719 423.652344 777.417969 386.277344 776.792969 361.914062 C 776.484375 349.761719 772.910156 341.609375 766.195312 337.554688 C 759.363281 333.429688 748.269531 332.914062 731.398438 338.59375 C 713.804688 344.511719 698.667969 344.632812 685.550781 340.074219 C 672.460938 335.527344 661.691406 326.425781 652.609375 314.457031 C 634.527344 290.628906 622.671875 254.78125 612.3125 218.359375 C 609.988281 210.183594 607.738281 201.980469 605.511719 193.855469 C 597.746094 165.535156 590.261719 138.230469 580.835938 116.742188 C 574.78125 102.941406 568.046875 91.839844 560.15625 84.503906 C 552.363281 77.257812 543.464844 73.6875 532.746094 74.804688 C 521.730469 75.957031 508.28125 81.597656 493.417969 90.855469 C 478.605469 100.082031 462.621094 112.757812 446.566406 127.699219 C 414.457031 157.585938 382.285156 196.34375 358.945312 234.144531 C 347.273438 253.042969 337.851562 271.644531 331.738281 288.730469 C 325.613281 305.851562 322.890625 321.242188 324.386719 333.800781 C 325.871094 346.230469 331.457031 355.851562 342.125 361.917969 C 352.957031 368.074219 369.390625 370.769531 392.902344 368.3125 C 441.308594 363.257812 472.628906 378.164062 493.507812 403.550781 C 514.195312 428.703125 524.375 463.835938 531.425781 498.722656 C 533.921875 511.078125 536.042969 523.503906 538.089844 535.488281 C 538.9375 540.4375 539.769531 545.316406 540.609375 550.082031 C 543.5 566.449219 546.492188 581.542969 550.464844 594.273438 C 554.453125 607.042969 559.335938 617.121094 565.8125 623.695312 Z M 535.292969 535.917969 C 544.8125 591.671875 552.902344 639.046875 591.242188 635.046875 C 684.382812 625.320312 867.472656 289.828125 730.496094 335.910156 C 654.40625 361.507812 630.480469 274.230469 608.28125 193.25 C 590.515625 128.445312 573.855469 67.667969 532.453125 71.992188 C 439.308594 81.714844 202.90625 390.996094 393.195312 371.128906 C 505.160156 359.4375 521.6875 456.230469 535.292969 535.917969 Z M 535.292969 535.917969 " fill-opacity="1" fill-rule="evenodd"/></g></g></g></g></g><g clip-path="url(#8009a7b9fa)"><g clip-path="url(#69e7a75ba1)"><g clip-path="url(#105a220633)"><g clip-path="url(#4d935858ca)"><g clip-path="url(#5b06d3e6a7)"><path fill="#ffffff" d="M 599.582031 620.332031 C 605.128906 626.84375 611.925781 630.039062 620.925781 629.101562 C 630.101562 628.140625 640.726562 622.464844 652.191406 612.792969 C 663.597656 603.175781 675.542969 589.859375 687.355469 574.136719 C 710.976562 542.699219 733.832031 501.949219 750.550781 462.8125 C 767.3125 423.566406 777.714844 386.375 776.820312 361.941406 C 776.375 349.679688 773.117188 341.421875 767.316406 337.308594 C 761.570312 333.234375 752.28125 332.5 737.925781 337.886719 C 722.703125 343.597656 709.464844 343.515625 697.925781 338.703125 C 686.460938 333.925781 677.027344 324.628906 669.046875 312.578125 C 653.144531 288.5625 642.417969 252.648438 632.96875 216.132812 C 630.847656 207.949219 628.792969 199.730469 626.757812 191.59375 C 619.65625 163.199219 612.800781 135.792969 604.359375 114.175781 C 598.929688 100.277344 592.953125 89.078125 586.046875 81.636719 C 579.222656 74.285156 571.644531 70.746094 562.722656 71.675781 C 553.429688 72.648438 542.035156 78 529.375 87.019531 C 516.777344 95.992188 503.203125 108.398438 489.589844 123.078125 C 462.363281 152.433594 435.199219 190.652344 415.628906 228.0625 C 395.976562 265.617188 384.28125 301.792969 387.261719 327.242188 C 388.738281 339.824219 393.757812 349.53125 402.964844 355.691406 C 412.265625 361.910156 426.300781 364.824219 446.421875 362.722656 C 467.300781 360.542969 484.644531 363.273438 499.105469 369.84375 C 513.566406 376.410156 524.964844 386.738281 534.085938 399.476562 C 552.253906 424.851562 561.519531 460.015625 568.09375 494.929688 C 570.425781 507.300781 572.429688 519.726562 574.367188 531.71875 C 575.167969 536.675781 575.957031 541.5625 576.75 546.335938 C 579.476562 562.722656 582.277344 577.855469 585.890625 590.648438 C 589.523438 603.492188 593.890625 613.660156 599.582031 620.332031 Z M 571.566406 532.132812 C 580.574219 587.9375 588.230469 635.359375 621.21875 631.914062 C 701.359375 623.546875 854.332031 291.199219 736.933594 335.238281 C 671.71875 359.699219 649.839844 272.210938 629.535156 191.03125 C 613.289062 126.066406 598.050781 65.140625 562.429688 68.863281 C 482.285156 77.230469 282.984375 382.636719 446.714844 365.539062 C 543.046875 355.480469 558.691406 452.367188 571.566406 532.132812 Z M 571.566406 532.132812 " fill-opacity="1" fill-rule="evenodd"/></g></g></g></g></g></g></g></g></svg>